<svg xmlns="http://www.w3.org/2000/svg" width="38.257" height="26.78" viewBox="0 0 38.257 26.78">
  <g id="_259981" data-name="259981" transform="translate(1 -74.541)">
    <g id="Group_2706" data-name="Group 2706" transform="translate(-1 74.541)">
      <g id="Group_2705" data-name="Group 2705" transform="translate(0)">
        <path id="Path_578" data-name="Path 578" d="M35.344,74.541H.913A1.879,1.879,0,0,0-1,76.454V89.206A1.879,1.879,0,0,0,.913,91.119H35.344a1.879,1.879,0,0,0,1.913-1.913V76.454A1.879,1.879,0,0,0,35.344,74.541Zm.638,14.665a.6.6,0,0,1-.638.638H.913a.6.6,0,0,1-.638-.638V76.454a.639.639,0,0,1,.638-.638H35.344a.6.6,0,0,1,.638.638V89.206Z" transform="translate(1 -74.541)" fill="#569040"/>
        <path id="Path_579" data-name="Path 579" d="M209.474,134.571h5.1a.638.638,0,0,0,0-1.275h-5.1a.638.638,0,1,0,0,1.275Z" transform="translate(-192.895 -128.833)" fill="#569040"/>
        <path id="Path_580" data-name="Path 580" d="M65.093,242.41H33.212a.638.638,0,1,0,0,1.275H65.093a.638.638,0,1,0,0-1.275Z" transform="translate(-30.023 -229.658)" fill="#569040"/>
        <path id="Path_581" data-name="Path 581" d="M65.093,208.836H33.212a.638.638,0,1,0,0,1.275H65.093a.638.638,0,1,0,0-1.275Z" transform="translate(-30.023 -198.634)" fill="#569040"/>
        <path id="Path_582" data-name="Path 582" d="M227.855,312.492c-.638-.319-.956-.7-.956-1.02s.383-.7.893-1.084a.609.609,0,0,0,.255-.829.563.563,0,0,0-.829-.255,2.637,2.637,0,0,0-1.594,2.168,2.806,2.806,0,0,0,1.594,2.232c.638.319.956.7.956,1.02s-.383.7-.956,1.02a.563.563,0,0,0-.255.829.67.67,0,0,0,.574.319.575.575,0,0,0,.319-.064,2.637,2.637,0,0,0,1.594-2.168A2.558,2.558,0,0,0,227.855,312.492Z" transform="translate(-208.407 -291.386)" fill="#569040"/>
        <path id="Path_583" data-name="Path 583" d="M135.527,329.279c-.638-.319-.956-.7-.956-1.02s.383-.7.893-1.084a.613.613,0,0,0-.574-1.084,2.637,2.637,0,0,0-1.594,2.168,2.806,2.806,0,0,0,1.594,2.232c.638.319.956.7.956,1.02s-.383.7-.956,1.02a.563.563,0,0,0-.255.829.67.67,0,0,0,.574.319.575.575,0,0,0,.319-.064,2.636,2.636,0,0,0,1.594-2.168A2.559,2.559,0,0,0,135.527,329.279Z" transform="translate(-123.093 -306.898)" fill="#569040"/>
        <path id="Path_584" data-name="Path 584" d="M320.183,329.279c-.638-.319-.956-.7-.956-1.02s.383-.7.893-1.084a.609.609,0,0,0,.255-.829.563.563,0,0,0-.829-.255,2.637,2.637,0,0,0-1.594,2.168,2.806,2.806,0,0,0,1.594,2.232c.638.319.956.7.956,1.02s-.383.7-.956,1.02a.563.563,0,0,0-.255.829.67.67,0,0,0,.574.319.575.575,0,0,0,.319-.064,2.637,2.637,0,0,0,1.594-2.168A2.559,2.559,0,0,0,320.183,329.279Z" transform="translate(-293.721 -306.898)" fill="#569040"/>
      </g>
    </g>
  </g>
</svg>
