<svg xmlns="http://www.w3.org/2000/svg" width="55.489" height="39.986" viewBox="0 0 55.489 39.986">
  <g id="_272422" data-name="272422" transform="translate(0.244 -71.545)">
    <g id="Group_2656" data-name="Group 2656" transform="translate(0 82.488)">
      <g id="Group_2655" data-name="Group 2655" transform="translate(0 0)">
        <path id="Path_531" data-name="Path 531" d="M54.782,185.6a48.952,48.952,0,0,0-7.952-6.911c-4.5-3.162-11.505-6.932-19.33-6.932s-14.83,3.77-19.33,6.932A48.954,48.954,0,0,0,.219,185.6a.876.876,0,0,0,0,1.157,48.952,48.952,0,0,0,7.952,6.911c4.5,3.162,11.505,6.932,19.33,6.932s14.83-3.77,19.33-6.932a48.953,48.953,0,0,0,7.952-6.911A.876.876,0,0,0,54.782,185.6Zm-45.569,6.66a50.278,50.278,0,0,1-7.14-6.081,50.165,50.165,0,0,1,7.1-6.056,36.484,36.484,0,0,1,13.929-6.2,13.02,13.02,0,0,0,0,24.513A36.454,36.454,0,0,1,9.213,192.256Zm7.019-6.081A11.269,11.269,0,1,1,27.5,197.444,11.281,11.281,0,0,1,16.232,186.175Zm29.591,6.056a36.48,36.48,0,0,1-13.929,6.2,13.02,13.02,0,0,0,0-24.513,36.455,36.455,0,0,1,13.893,6.175,50.286,50.286,0,0,1,7.14,6.081A50.172,50.172,0,0,1,45.823,192.232Z" transform="translate(0 -171.754)" fill="#569040" stroke="#569040" stroke-width="0.4"/>
      </g>
    </g>
    <g id="Group_2658" data-name="Group 2658" transform="translate(34.623 92.763)">
      <g id="Group_2657" data-name="Group 2657" transform="translate(0 0)">
        <path id="Path_532" data-name="Path 532" d="M323.992,267.95a.876.876,0,1,0-1.621.665,7.7,7.7,0,0,1,.577,2.938.876.876,0,1,0,1.752,0A9.446,9.446,0,0,0,323.992,267.95Z" transform="translate(-322.306 -267.406)" fill="#569040" stroke="#569040" stroke-width="0.4"/>
      </g>
    </g>
    <g id="Group_2660" data-name="Group 2660" transform="translate(26.624 87.393)">
      <g id="Group_2659" data-name="Group 2659" transform="translate(0 0)">
        <path id="Path_533" data-name="Path 533" d="M255.488,220.239a9.447,9.447,0,0,0-6.765-2.829.876.876,0,0,0,0,1.752,7.708,7.708,0,0,1,5.52,2.309.876.876,0,1,0,1.245-1.231Z" transform="translate(-247.847 -217.41)" fill="#569040" stroke="#569040" stroke-width="0.4"/>
      </g>
    </g>
    <g id="Group_2662" data-name="Group 2662" transform="translate(21.019 92.453)">
      <g id="Group_2661" data-name="Group 2661">
        <path id="Path_534" data-name="Path 534" d="M206.883,264.875c-.869-.465-2.379-.69-4.733.729-2.354-1.418-3.865-1.193-4.733-.729a3.846,3.846,0,0,0-1.748,3.634c0,3.257,5.353,7.267,5.964,7.713a.876.876,0,0,0,1.034,0c.61-.447,5.964-4.456,5.964-7.713A3.846,3.846,0,0,0,206.883,264.875Zm-4.733,9.542c-2.014-1.576-4.729-4.26-4.729-5.908a2.275,2.275,0,0,1,.823-2.09,1.4,1.4,0,0,1,.667-.149,5.475,5.475,0,0,1,2.754,1.1.876.876,0,0,0,.972,0c1.471-.98,2.718-1.327,3.421-.95a2.275,2.275,0,0,1,.823,2.09C206.879,270.154,204.164,272.839,202.15,274.417Z" transform="translate(-195.669 -264.52)" fill="#569040" stroke="#569040" stroke-width="0.4"/>
      </g>
    </g>
    <g id="Group_2664" data-name="Group 2664" transform="translate(26.624 71.745)">
      <g id="Group_2663" data-name="Group 2663">
        <path id="Path_535" data-name="Path 535" d="M248.723,71.745a.876.876,0,0,0-.876.876v6.072a.876.876,0,1,0,1.752,0V72.621A.876.876,0,0,0,248.723,71.745Z" transform="translate(-247.847 -71.745)" fill="#569040" stroke="#569040" stroke-width="0.4"/>
      </g>
    </g>
    <g id="Group_2666" data-name="Group 2666" transform="translate(35.733 74.999)">
      <g id="Group_2665" data-name="Group 2665" transform="translate(0 0)">
        <path id="Path_536" data-name="Path 536" d="M336.986,102.154a.876.876,0,0,0-1.2.321l-3.036,5.259a.876.876,0,1,0,1.517.876l3.036-5.259A.876.876,0,0,0,336.986,102.154Z" transform="translate(-332.637 -102.036)" fill="#569040" stroke="#569040" stroke-width="0.4"/>
      </g>
    </g>
    <g id="Group_2668" data-name="Group 2668" transform="translate(14.48 74.999)">
      <g id="Group_2667" data-name="Group 2667" transform="translate(0 0)">
        <path id="Path_537" data-name="Path 537" d="M139.464,107.733l-3.036-5.259a.876.876,0,1,0-1.517.876l3.036,5.259a.876.876,0,0,0,1.517-.876Z" transform="translate(-134.794 -102.037)" fill="#569040" stroke="#569040" stroke-width="0.4"/>
      </g>
    </g>
  </g>
</svg>
