<svg xmlns="http://www.w3.org/2000/svg" width="27.683" height="27.682" viewBox="0 0 27.683 27.682">
  <path id="_2933753" data-name="2933753" d="M27.651,15.813,23.133,5.472a5.606,5.606,0,0,0-4.237-3.3L18.08.231A.391.391,0,0,0,17.731,0H9.951A.4.4,0,0,0,9.6.231l-.816,1.94a5.606,5.606,0,0,0-4.237,3.3L.031,15.813a.379.379,0,0,0,.127.459l3.276,2.345a.378.378,0,0,0,.22.071.386.386,0,0,0,.1-.012A.379.379,0,0,0,4,18.469l3.437-7.436v4.085a1.244,1.244,0,0,0-1.19,1.241V16.4a1.244,1.244,0,0,0,1.19,1.241V27.3a.378.378,0,0,0,.378.378H19.87a.378.378,0,0,0,.378-.378v-9.66a1.244,1.244,0,0,0,1.19-1.241V16.36a1.244,1.244,0,0,0-1.19-1.241V11.033l3.437,7.436a.379.379,0,0,0,.247.207.386.386,0,0,0,.1.012.378.378,0,0,0,.22-.071l3.276-2.345a.378.378,0,0,0,.126-.459ZM9.976,1.295,13.42,8.37l-.546,1.122L9.47,2.5ZM13.841,7.5l-2.264-4.65H16.1Zm3.865-6.21.506,1.2L12.071,15.116H10.979Zm-.58-.538L16.473,2.1H11.209L10.556.757ZM3.5,17.736l-2.653-1.9,4.4-10.061A4.852,4.852,0,0,1,8.837,2.927l3.616,7.43-2.316,4.758H8.191v-5.8a.378.378,0,0,0-.722-.159Zm4.689-.089H9.665v9.279H8.191ZM11.4,26.926h-.973v-9.28H11.4Zm8.1,0H12.153v-9.28h7.339Zm1.19-10.567V16.4a.487.487,0,0,1-.487.487H7.488A.487.487,0,0,1,7,16.4v-.043a.487.487,0,0,1,.487-.487H20.194a.487.487,0,0,1,.487.487Zm3.5,1.377L20.213,9.153a.378.378,0,0,0-.722.159v5.8H12.913L18.846,2.927a4.852,4.852,0,0,1,3.593,2.847l4.4,10.061Z" transform="translate(0)" fill="#569040"/>
</svg>
