<svg id="Group_2085" data-name="Group 2085" xmlns="http://www.w3.org/2000/svg" width="36.023" height="24.349" viewBox="0 0 36.023 24.349">
  <path id="Path_549" data-name="Path 549" d="M32.517,70.039V64.183A3.342,3.342,0,0,0,28.934,60.6H6.973A3.321,3.321,0,0,0,3.39,64.183v5.856A3.67,3.67,0,0,0,0,74.046v4.546a1.381,1.381,0,0,0,1.387,1.387h.462v3.583a1.381,1.381,0,0,0,1.387,1.387h1.31a1.381,1.381,0,0,0,1.387-1.387V79.941H30.09v3.622a1.381,1.381,0,0,0,1.387,1.387h1.31a1.381,1.381,0,0,0,1.387-1.387V79.941h.462a1.381,1.381,0,0,0,1.387-1.387V74.046A3.828,3.828,0,0,0,32.517,70.039ZM4.7,64.183h.077a1.97,1.97,0,0,1,2.2-2.2H28.934a1.97,1.97,0,0,1,2.2,2.2V70H30.09V66.687A1.381,1.381,0,0,0,28.7,65.3H20.227a1.381,1.381,0,0,0-1.387,1.387V70H17.222V66.687A1.381,1.381,0,0,0,15.835,65.3H7.359a1.381,1.381,0,0,0-1.387,1.387V70H4.7Zm24,2.5V70H20.227V66.687Zm-12.791,0V70H7.436V66.687ZM4.508,83.562H3.2V79.941h1.31Zm28.2,0H31.4V79.941h1.31Zm1.811-4.97H1.348V76.55H34.52Zm0-3.429H1.348V74.046a2.422,2.422,0,0,1,2.658-2.658H31.862a2.407,2.407,0,0,1,2.658,2.658Z" transform="translate(0 -60.6)" fill="#569040"/>
</svg>
