<svg xmlns="http://www.w3.org/2000/svg" width="34.406" height="25.81" viewBox="0 0 34.406 25.81">
  <g id="Page-1" transform="translate(-0.003)">
    <g id="_037---Sheet" data-name="037---Sheet" transform="translate(0.003)">
      <path id="Shape" d="M34.3,13.8,32.6,5.443A6.909,6.909,0,0,0,25.87,0H9.114A6.908,6.908,0,0,0,2.388,5.443L.173,15.805a.332.332,0,0,0,0,.041,8.291,8.291,0,0,0,8.368,9.959H31.255a3.154,3.154,0,0,0,3.139-3.462A3.2,3.2,0,0,0,31.969,19.6,5.712,5.712,0,0,0,34.3,13.815c0-.005,0-.01,0-.015ZM3.51,5.682a5.756,5.756,0,0,1,5.6-4.535H25.87a5.755,5.755,0,0,1,5.6,4.53l1.013,4.961a5.7,5.7,0,0,0-3.812-1.463H8.316A8.242,8.242,0,0,0,2.3,11.762c-.04.042-.073.088-.115.13ZM28.674,19.5H8.316a2.01,2.01,0,0,1-2-2.209,2.088,2.088,0,0,1,2.112-1.805H28.674a.573.573,0,0,0,0-1.147H8.431a3.245,3.245,0,0,0-3.254,2.841,3.157,3.157,0,0,0,3.139,3.467H31.144a2.083,2.083,0,0,1,2.108,1.808A1.992,1.992,0,0,1,32.74,24a2.013,2.013,0,0,1-1.485.658H8.541a7.278,7.278,0,0,1-7.384-6.806,7.176,7.176,0,0,1,7.159-7.53H28.674a4.588,4.588,0,0,1,0,9.175Z" transform="translate(-0.003)" fill="#569040"/>
      <path id="Shape-2" data-name="Shape" d="M8.506,8.307a.573.573,0,0,0,.68-.442,3.451,3.451,0,0,1,3.36-2.718H17.2A.573.573,0,1,0,17.2,4H12.546A4.6,4.6,0,0,0,8.064,7.627a.573.573,0,0,0,.442.68Z" transform="translate(-3.436 -1.706)" fill="#569040"/>
      <circle id="Oval" cx="0.419" cy="0.419" r="0.419" transform="translate(15.526 2.416)" fill="#569040"/>
    </g>
  </g>
</svg>
