<svg xmlns="http://www.w3.org/2000/svg" width="31.009" height="26.355" viewBox="0 0 31.009 26.355">
  <g id="Page-1" transform="translate(0)">
    <g id="_008---Coffee-and-Croissant" data-name="008---Coffee-and-Croissant" transform="translate(0)">
      <path id="Shape" d="M29.791,29.469H26.306a7.183,7.183,0,0,0,3.189-2.694.982.982,0,0,0,.056-.9c-.034-.078-.076-.171-.124-.272a9.437,9.437,0,0,0,1.351-2.911,10.741,10.741,0,0,0,.161-3.43A1.261,1.261,0,0,0,30.1,18.2c-.524-2.515-1.229-2.916-1.468-3.049a1.146,1.146,0,0,0-.994-.07c-1.28.487-1.284,1.631-1.288,2.639,0,.241-.008.488-.023.734a1.467,1.467,0,0,0-1.058.965,3.548,3.548,0,0,1-.426.851,6.272,6.272,0,0,0-.658-.3.944.944,0,0,0-.662,0l-2.654,1.014a.962.962,0,0,0-.491.426,7.053,7.053,0,0,0-.331.691,3.555,3.555,0,0,1-.406-.152V16.034A1.034,1.034,0,0,0,18.6,15H6.2a1.034,1.034,0,0,0-1.034,1.034v.7a5.815,5.815,0,0,0-1.462-.187C0,16.55,0,20.622,0,21.961c0,2.992,1.454,4.925,3.705,4.925a6.537,6.537,0,0,0,1.763-.252,5.646,5.646,0,0,0,2.109,2.836h-4.3A1.122,1.122,0,0,0,2.067,30.5v1.034A2.36,2.36,0,0,0,4.677,33.6H28.4a2.36,2.36,0,0,0,2.61-2.067V30.5a1.122,1.122,0,0,0-1.214-1.034ZM28,16.047a.118.118,0,0,1,.122.006c.088.049.513.375.9,2.086-.435.018-1,.056-1.654.141.007-.193.008-.381.009-.556C27.385,16.654,27.437,16.262,28,16.047Zm-1.751,3.689a.44.44,0,0,1,.346-.292c.1-.02.19-.034.3-.052a17.15,17.15,0,0,1,2.731-.239h.034a.242.242,0,0,1,.256.207,9.7,9.7,0,0,1-.137,3.084,7.781,7.781,0,0,1-.9,2.091,11.834,11.834,0,0,0-3.157-3.721A4.577,4.577,0,0,0,26.252,19.736Zm-4.987,2.2,2.591-.99c2.766,1.088,4.444,4.636,4.754,5.3a6.691,6.691,0,0,1-3.57,2.643,8.614,8.614,0,0,1-2.535.576h-.682a4.089,4.089,0,0,1-1.061-.191c-.029-.127-.069-.3-.109-.509-.246-1.28-.675-4.5.611-6.832Zm-3.148,6.734a9.8,9.8,0,0,0,1.584.606c.016.072.03.134.043.192H17.208a5.7,5.7,0,0,0,.909-.8Zm1.381-.546a6.9,6.9,0,0,1-1.939-1.005,8.9,8.9,0,0,1-1.939-2.279.31.31,0,0,1,.093-.377l.019-.019A18.359,18.359,0,0,1,18,22.776c.082-.052.164-.107.264-.165a.378.378,0,0,1,.4-.009,4.134,4.134,0,0,0,1.041.473,12.819,12.819,0,0,0-.207,5.05Zm-4.473-7.065a.173.173,0,0,1,.113-.115c.548-.207.8.04,1.437.858.11.14.227.29.353.44-.563.378-1.027.728-1.377,1.01a3.7,3.7,0,0,1-.525-2.194Zm-9.858,2.4a3.7,3.7,0,0,1-1.462.324c-.393,0-.6-.94-.6-1.824,0-2.31.349-2.31.6-2.31a2.2,2.2,0,0,1,1.462.478Zm-4.134-1.5c0-2.039.3-4.379,2.672-4.379a4.657,4.657,0,0,1,1.462.228v1.111a3.453,3.453,0,0,0-1.462-.3c-1.513,0-1.638,1.582-1.638,3.343,0,1.79.612,2.858,1.638,2.858a4.532,4.532,0,0,0,1.462-.258v.258a5.592,5.592,0,0,0,.065.807,5.544,5.544,0,0,1-1.528.227c-1.673,0-2.672-1.455-2.672-3.891Zm5.288,3.9a4.547,4.547,0,0,1-.12-1.046V16.034H18.6v5.5a1.406,1.406,0,0,0-.784.155c-.149-.171-.293-.346-.43-.522-.585-.75-1.313-1.686-2.619-1.189a1.2,1.2,0,0,0-.708.705c-.269.694-.035,1.787.7,3.323a1.3,1.3,0,0,0-.023,1.378,9.943,9.943,0,0,0,2.185,2.552c.09.07.184.133.278.2a4.612,4.612,0,0,1-3.251,1.334h-3.1a4.625,4.625,0,0,1-4.53-3.606Zm23.651,5.672c0,.56-.723,1.034-1.576,1.034H4.677c-.853,0-1.576-.473-1.576-1.034V30.55a.33.33,0,0,1,.181-.047h26.51a.33.33,0,0,1,.181.047Z" transform="translate(0 -7.249)" fill="#569040"/>
      <path id="Shape-2" data-name="Shape" d="M22,5.684a.517.517,0,0,0,1.034,0,1.335,1.335,0,0,1,.4-.969,2.385,2.385,0,0,0,0-3.23,1.335,1.335,0,0,1-.4-.969A.517.517,0,0,0,22,.517a2.339,2.339,0,0,0,.63,1.615,1.365,1.365,0,0,1,0,1.938A2.339,2.339,0,0,0,22,5.684Z" transform="translate(-10.631)" fill="#569040"/>
      <path id="Shape-3" data-name="Shape" d="M16,5.684a.517.517,0,0,0,1.034,0,1.335,1.335,0,0,1,.4-.969,2.385,2.385,0,0,0,0-3.23,1.335,1.335,0,0,1-.4-.969A.517.517,0,0,0,16,.517a2.339,2.339,0,0,0,.63,1.615,1.365,1.365,0,0,1,0,1.938A2.339,2.339,0,0,0,16,5.684Z" transform="translate(-7.732)" fill="#569040"/>
      <path id="Shape-4" data-name="Shape" d="M28,5.684a.517.517,0,1,0,1.034,0,1.335,1.335,0,0,1,.4-.969,2.385,2.385,0,0,0,0-3.23,1.335,1.335,0,0,1-.4-.969A.517.517,0,1,0,28,.517a2.339,2.339,0,0,0,.63,1.615,1.365,1.365,0,0,1,0,1.938A2.339,2.339,0,0,0,28,5.684Z" transform="translate(-13.531)" fill="#569040"/>
    </g>
  </g>
</svg>
