<svg xmlns="http://www.w3.org/2000/svg" width="30" height="27.887" viewBox="0 0 30 27.887">
  <path id="_2963594" data-name="2963594" d="M27.911,36.4a15.916,15.916,0,0,0-3.94-.807,2.424,2.424,0,0,0,.123-.762,5.2,5.2,0,0,0-.869-2.441c1.086-.567,1.33-1.182,1.33-1.621V25.912c0-.895-.968-1.49-1.781-1.832a.44.44,0,0,0-.341.81c.6.253,1.243.654,1.243,1.022,0,.809-2.9,1.985-7.453,1.985s-7.453-1.176-7.453-1.985c0-.266.382-.7,1.455-1.107a15.493,15.493,0,0,1,4.177-.811,2.424,2.424,0,0,0,1.381.786v1.133a.439.439,0,0,0,.879,0V24.779a2.424,2.424,0,0,0,1.381-.786,20.349,20.349,0,0,1,2.043.25.44.44,0,0,0,.153-.865c-.542-.1-1.117-.172-1.713-.227a2.423,2.423,0,0,0,.123-.762,5.689,5.689,0,0,0-1.06-2.758,15.36,15.36,0,0,0-1.026-1.444.439.439,0,0,0-.68,0,15.369,15.369,0,0,0-1.026,1.444,5.689,5.689,0,0,0-1.06,2.758,2.425,2.425,0,0,0,.123.762c-2.883.268-6.029,1.128-6.029,2.76a1.233,1.233,0,0,0,.009.144,15.835,15.835,0,0,0-.935,1.331,5.689,5.689,0,0,0-1.06,2.758,2.425,2.425,0,0,0,.123.762C3.145,31.176,0,32.035,0,33.668v4.469A1.639,1.639,0,0,0,.49,39.4a4.432,4.432,0,0,0,1.6.915.44.44,0,0,0,.307-.824,3.656,3.656,0,0,1-1.285-.717.757.757,0,0,1-.228-.642V35.02a6.469,6.469,0,0,0,1.743.782,20.259,20.259,0,0,0,5.71.729,20.26,20.26,0,0,0,5.71-.729,6.471,6.471,0,0,0,1.743-.782v1.252c-.172.056-.337.114-.492.175a4.666,4.666,0,0,0-1.361.768,1.508,1.508,0,0,0-.595,1.135v1.438a20.323,20.323,0,0,1-6.5.519c-.667-.04-1.315-.107-1.924-.2a.44.44,0,0,0-.132.869c.636.1,1.31.166,2,.208q.908.055,1.756.055a19.6,19.6,0,0,0,4.8-.543v2.353c0,.869.907,1.607,2.622,2.134a20.262,20.262,0,0,0,5.71.729,20.261,20.261,0,0,0,5.71-.729C29.093,44.657,30,43.919,30,43.049v-4.7c0-.537-.362-1.311-2.088-1.954ZM15.756,23.47a2.512,2.512,0,0,1,.469-1.049,2.5,2.5,0,0,1,.468,1.049.468.468,0,1,1-.937,0Zm.468-4.287a7.277,7.277,0,0,1,1.547,3.205,1.545,1.545,0,0,1-.228.81,4.974,4.974,0,0,0-.979-1.8.439.439,0,0,0-.68,0,4.974,4.974,0,0,0-.979,1.8,1.545,1.545,0,0,1-.228-.81,7.288,7.288,0,0,1,1.547-3.205Zm5.444,12.439a7.277,7.277,0,0,1,1.547,3.205,1.545,1.545,0,0,1-.22.8l-.01.008a4.99,4.99,0,0,0-.978-1.794.439.439,0,0,0-.68,0,4.974,4.974,0,0,0-.979,1.8,1.545,1.545,0,0,1-.228-.81A7.289,7.289,0,0,1,21.668,31.622ZM21.2,35.909a2.512,2.512,0,0,1,.469-1.049,2.5,2.5,0,0,1,.468,1.049.468.468,0,1,1-.937,0Zm-4.976-7.134a20.259,20.259,0,0,0,5.71-.729,6.471,6.471,0,0,0,1.743-.782v3.5c0,.3-.434.628-.923.874-.4-.586-.729-.994-.746-1.014a.439.439,0,0,0-.68,0A15.381,15.381,0,0,0,20.3,32.069c-.078.124-.151.246-.22.365a22.526,22.526,0,0,1-3.8.315,3.983,3.983,0,0,0-1.577-.986,15.576,15.576,0,0,0-4.071-.857,2.424,2.424,0,0,0,.123-.762,4.956,4.956,0,0,0-.775-2.279q.252.094.532.18a20.258,20.258,0,0,0,5.71.729ZM8.332,26.94a7.277,7.277,0,0,1,1.547,3.205,1.545,1.545,0,0,1-.228.811,4.974,4.974,0,0,0-.979-1.8.439.439,0,0,0-.68,0,4.975,4.975,0,0,0-.979,1.8,1.545,1.545,0,0,1-.228-.811A7.289,7.289,0,0,1,8.332,26.94Zm-.468,4.287a2.511,2.511,0,0,1,.468-1.049A2.511,2.511,0,0,1,8.8,31.226a.468.468,0,1,1-.937,0Zm.468,4.426c-4.55,0-7.453-1.176-7.453-1.985,0-.267.383-.7,1.457-1.108a15.5,15.5,0,0,1,4.175-.81,2.424,2.424,0,0,0,1.381.786v1.133a.439.439,0,0,0,.879,0V32.535a2.425,2.425,0,0,0,1.4-.8.44.44,0,0,0,.119.027c3.751.3,5.5,1.316,5.5,1.909C15.784,34.477,12.881,35.653,8.332,35.653Zm8.332-1.985c0-.014,0-.028,0-.043a23.989,23.989,0,0,0,2.928-.223,3.746,3.746,0,0,0-.349,1.426,2.424,2.424,0,0,0,.123.762,18.923,18.923,0,0,0-2.7.434Zm-.357,3.359c1.184-.225,2.324-.478,3.526-.613a2.424,2.424,0,0,0,1.4.8V38.35a.439.439,0,1,0,.879,0V37.218a2.424,2.424,0,0,0,1.381-.786c3.676.271,5.633,1.277,5.633,1.918,0,.809-2.9,1.985-7.453,1.985s-7.453-1.176-7.453-1.985C14.215,37.982,14.892,37.449,16.307,37.027Zm5.361,8.008c-4.55,0-7.453-1.176-7.453-1.985V39.7a6.471,6.471,0,0,0,1.743.782,20.259,20.259,0,0,0,5.71.729,20.259,20.259,0,0,0,5.71-.729,6.471,6.471,0,0,0,1.743-.782v3.347c0,.809-2.9,1.985-7.453,1.985Z" transform="translate(0 -18.026)" fill="#569040"/>
</svg>
