<svg xmlns="http://www.w3.org/2000/svg" width="34.854" height="34.854" viewBox="0 0 34.854 34.854">
  <g id="_2495164" data-name="2495164" transform="translate(-1 -1)">
    <path id="Path_679" data-name="Path 679" d="M25.173,14.492a10.622,10.622,0,0,0-3.352.547,10.68,10.68,0,1,0-6.782,6.782,10.677,10.677,0,1,0,10.134-7.329Zm0,16.865a6.184,6.184,0,1,1,6.184-6.184A6.191,6.191,0,0,1,25.173,31.356Zm4.749-11.727a7.268,7.268,0,0,0-4.186-1.736V15.645a9.5,9.5,0,0,1,5.776,2.4Zm-5.311-1.736a7.266,7.266,0,0,0-4.186,1.736L18.835,18.04a9.505,9.505,0,0,1,5.776-2.4v2.249Zm-6.571.941,1.589,1.589a7.268,7.268,0,0,0-1.736,4.186H15.644a9.506,9.506,0,0,1,2.4-5.776Zm-.146,6.9a7.266,7.266,0,0,0,1.736,4.186L18.04,31.51a9.505,9.505,0,0,1-2.4-5.776h2.249Zm2.531,4.981a7.268,7.268,0,0,0,4.186,1.736V34.7a9.5,9.5,0,0,1-5.776-2.4Zm5.311,1.736a7.266,7.266,0,0,0,4.186-1.736l1.589,1.589a9.505,9.505,0,0,1-5.776,2.4V32.452Zm4.981-2.531a7.268,7.268,0,0,0,1.736-4.186H34.7a9.5,9.5,0,0,1-2.4,5.776Zm1.736-5.311a7.266,7.266,0,0,0-1.736-4.186l1.589-1.589a9.505,9.505,0,0,1,2.4,5.776H32.452ZM18.04,17.245l-.816-.816a7.268,7.268,0,0,0,1.736-4.186h2.246a9.436,9.436,0,0,1-.838,3.4,10.717,10.717,0,0,0-2.328,1.6Zm.92-6.126a7.266,7.266,0,0,0-1.736-4.186l1.589-1.589a9.505,9.505,0,0,1,2.4,5.776H18.96ZM16.43,6.138A7.266,7.266,0,0,0,12.243,4.4V2.153a9.5,9.5,0,0,1,5.776,2.4ZM11.119,4.4A7.266,7.266,0,0,0,6.932,6.138l-1.59-1.59a9.505,9.505,0,0,1,5.776-2.4ZM6.138,6.932A7.266,7.266,0,0,0,4.4,11.119H2.153a9.5,9.5,0,0,1,2.4-5.776ZM4.4,12.243A7.266,7.266,0,0,0,6.138,16.43L4.548,18.019a9.5,9.5,0,0,1-2.4-5.776Zm2.531,4.981a7.268,7.268,0,0,0,4.186,1.736v2.249a9.5,9.5,0,0,1-5.776-2.4Zm4.749.64a6.184,6.184,0,1,1,6.184-6.184A6.191,6.191,0,0,1,11.681,17.865Zm.562,3.342V18.961a7.266,7.266,0,0,0,4.186-1.736l.816.816a10.7,10.7,0,0,0-1.6,2.328,9.442,9.442,0,0,1-3.4.838Z" fill="#569040"/>
    <path id="Path_680" data-name="Path 680" d="M20.995,15.5a2.79,2.79,0,0,0-1.857-2.64,2.805,2.805,0,0,0-5.28,0,2.809,2.809,0,0,0,.953,5.451,2.672,2.672,0,0,0,.277-.023l-1.306,1.96a.562.562,0,0,0,.468.874h4.5a.562.562,0,0,0,.468-.874l-1.306-1.96c.092.009.183.022.277.022A2.814,2.814,0,0,0,20.995,15.5Zm-7.87,0a1.677,1.677,0,0,1,1.311-1.64.562.562,0,0,0,.422-.423,1.682,1.682,0,0,1,3.28,0,.562.562,0,0,0,.423.422,1.683,1.683,0,1,1-1.64,2.743.562.562,0,0,0-.847,0,1.661,1.661,0,0,1-1.263.584A1.689,1.689,0,0,1,13.124,15.5Zm2.174,4.5,1.2-1.8,1.2,1.8Z" transform="translate(-4.816 -4.378)" fill="#569040"/>
    <path id="Path_681" data-name="Path 681" d="M43.138,36.857a2.805,2.805,0,0,0-5.28,0,2.809,2.809,0,0,0,.953,5.451,2.671,2.671,0,0,0,.277-.023l-1.306,1.96a.562.562,0,0,0,.468.874h4.5a.562.562,0,0,0,.468-.874l-1.306-1.96c.092.009.183.022.277.022a2.808,2.808,0,0,0,.954-5.451ZM39.3,43.995l1.2-1.8,1.2,1.8Zm2.885-2.811a1.661,1.661,0,0,1-1.263-.584.562.562,0,0,0-.847,0,1.661,1.661,0,0,1-1.263.584,1.684,1.684,0,0,1-.376-3.327.562.562,0,0,0,.422-.423,1.682,1.682,0,0,1,3.28,0,.562.562,0,0,0,.423.422,1.684,1.684,0,0,1-.377,3.326Z" transform="translate(-15.325 -14.887)" fill="#569040"/>
    <path id="Path_682" data-name="Path 682" d="M48.059,13.119A5.059,5.059,0,1,0,43,8.059,5.065,5.065,0,0,0,48.059,13.119Zm0-8.995a3.935,3.935,0,1,1-3.935,3.935A3.94,3.94,0,0,1,48.059,4.124Z" transform="translate(-18.389 -0.876)" fill="#569040"/>
    <path id="Path_683" data-name="Path 683" d="M49.811,12.622A2.811,2.811,0,1,0,47,9.811,2.814,2.814,0,0,0,49.811,12.622Zm0-4.5a1.686,1.686,0,1,1-1.686,1.686A1.689,1.689,0,0,1,49.811,8.124Z" transform="translate(-20.141 -2.627)" fill="#569040"/>
    <path id="Path_684" data-name="Path 684" d="M8.059,43a5.059,5.059,0,1,0,5.059,5.059A5.065,5.065,0,0,0,8.059,43Zm0,8.994a3.935,3.935,0,1,1,3.935-3.935A3.94,3.94,0,0,1,8.059,51.995Z" transform="translate(-0.876 -18.389)" fill="#569040"/>
    <path id="Path_685" data-name="Path 685" d="M9.811,47a2.811,2.811,0,1,0,2.811,2.811A2.814,2.814,0,0,0,9.811,47Zm0,4.5A1.686,1.686,0,1,1,11.5,49.811,1.689,1.689,0,0,1,9.811,51.5Z" transform="translate(-2.627 -20.141)" fill="#569040"/>
  </g>
</svg>
