<svg xmlns="http://www.w3.org/2000/svg" width="35.408" height="35.408" viewBox="0 0 35.408 35.408">
  <g id="_2907410" data-name="2907410" transform="translate(0)">
    <path id="Path_656" data-name="Path 656" d="M28.9,0a6.519,6.519,0,0,0-6.473,5.819H17.9a.692.692,0,1,0,0,1.383h9.328l-4.059,4.06a3.027,3.027,0,0,1-2.733-.034,4.372,4.372,0,0,0-4.243,0,3.016,3.016,0,0,1-2.8,0,4.311,4.311,0,0,0-2.793-.5L8.015,7.2h3.674a.692.692,0,1,0,0-1.383H7L3.282.753a.692.692,0,1,0-1.115.818L5.285,5.819H.692A.692.692,0,0,0,.2,7l5.3,5.3.021.021L9.98,16.78l1.394,3.269a1.966,1.966,0,0,0,2.059,1.426H14.1V29.58L8.062,34.166a.692.692,0,0,0,.418,1.242H21.106a.692.692,0,0,0,.418-1.242L15.486,29.58V21.475h.669a1.967,1.967,0,0,0,2.059-1.426l1.394-3.269,4.454-4.455.021-.021.725-.725A6.511,6.511,0,1,0,28.9,0ZM6.42,11.262,2.361,7.2H6.3l2.925,3.985-.072.042a3.027,3.027,0,0,1-2.732.034ZM19.052,34.025H10.535l4.259-3.234ZM16.942,19.506c-.226.531-.3.586-.787.586H13.434c-.487,0-.561-.055-.787-.586l-1.036-2.429h6.367Zm1.8-3.812H10.85L8.1,12.943a3.964,3.964,0,0,0,1.777-.536,3.012,3.012,0,0,1,2.794,0,4.378,4.378,0,0,0,4.246,0,3.011,3.011,0,0,1,2.793,0,3.966,3.966,0,0,0,1.778.537Zm5.079-9.875a5.1,5.1,0,0,1,1-2.41l2.409,2.41Zm4.389,5.774a5.067,5.067,0,0,1-2.413-1L28.205,8.18Zm0-6.752L25.8,2.431a5.1,5.1,0,0,1,2.409-1Zm5.773.978H30.566l2.41-2.411A5.1,5.1,0,0,1,33.978,5.819Zm-4.39-4.388a5.1,5.1,0,0,1,2.41,1l-2.41,2.41Zm0,10.161V8.18L32,10.59A5.1,5.1,0,0,1,29.588,11.592Zm3.388-1.979L30.566,7.2h3.412A5.1,5.1,0,0,1,32.976,9.613Z" transform="translate(0)" fill="#569040"/>
    <path id="Path_657" data-name="Path 657" d="M204.614,85.523h0a.692.692,0,1,0-.7-.692A.69.69,0,0,0,204.617,85.523Z" transform="translate(-189.819 -78.321)" fill="#569040"/>
  </g>
</svg>
