<svg xmlns="http://www.w3.org/2000/svg" width="37.899" height="28.119" viewBox="0 0 37.899 28.119">
  <g id="_2777142" data-name="2777142" transform="translate(-8 -72)">
    <path id="Path_664" data-name="Path 664" d="M34.445,400H32.611a.611.611,0,1,0,0,1.223h1.834a.611.611,0,0,0,0-1.223Z" transform="translate(-22.166 -302.938)" fill="#569040"/>
    <path id="Path_665" data-name="Path 665" d="M81.223,400h-.611a.611.611,0,1,0,0,1.223h.611a.611.611,0,1,0,0-1.223Z" transform="translate(-66.499 -302.938)" fill="#569040"/>
    <path id="Path_666" data-name="Path 666" d="M43.454,79.335H42.231v-4.89A2.448,2.448,0,0,0,39.786,72H14.113a2.448,2.448,0,0,0-2.445,2.445v11H10.445A2.448,2.448,0,0,0,8,87.893v9.78a2.448,2.448,0,0,0,2.445,2.445h6.113A2.448,2.448,0,0,0,19,97.673V95.84h5.33l-.306,1.223H22.059a.611.611,0,0,0-.611.611v1.834a.611.611,0,0,0,.611.611H43.454A2.448,2.448,0,0,0,45.9,97.673V81.78A2.448,2.448,0,0,0,43.454,79.335ZM17.78,97.673A1.224,1.224,0,0,1,16.558,98.9H10.445a1.224,1.224,0,0,1-1.223-1.223v-9.78a1.224,1.224,0,0,1,1.223-1.223h.782l.472,1.416a.611.611,0,0,0,.58.418h2.445a.611.611,0,0,0,.58-.418l.472-1.416h.782a1.224,1.224,0,0,1,1.223,1.223Zm-5.265-11h1.971l-.2.611H12.72ZM19,94.617V92.783h11v1.834Zm11,1.223v1.223h-.134l-.306-1.223Zm-1.394,1.223H25.288l.306-1.223h2.713ZM22.671,98.9v-.611h7.412a2.444,2.444,0,0,0,.252.611ZM30.006,81.78v9.78H19V87.893a2.448,2.448,0,0,0-2.445-2.445H12.89v-11a1.224,1.224,0,0,1,1.223-1.223H39.786a1.224,1.224,0,0,1,1.223,1.223v4.89H32.451A2.448,2.448,0,0,0,30.006,81.78ZM44.676,97.673A1.224,1.224,0,0,1,43.454,98.9h-11a1.224,1.224,0,0,1-1.223-1.223V81.78a1.224,1.224,0,0,1,1.223-1.223h11a1.224,1.224,0,0,1,1.223,1.223Z" fill="#569040"/>
    <path id="Path_667" data-name="Path 667" d="M331.614,192h-11a.611.611,0,0,0-.611.611v14.059a.611.611,0,0,0,.611.611h11a.611.611,0,0,0,.611-.611V192.611A.611.611,0,0,0,331.614,192ZM331,206.059h-9.78V193.223H331Z" transform="translate(-288.16 -110.831)" fill="#569040"/>
    <circle id="Ellipse_35" data-name="Ellipse 35" cx="0.584" cy="0.584" r="0.584" transform="translate(36.679 96.956)" fill="#569040"/>
  </g>
</svg>
