<svg xmlns="http://www.w3.org/2000/svg" width="53.544" height="37.857" viewBox="0 0 53.544 37.857">
  <g id="_4223218" data-name="4223218" transform="translate(0 -75)">
    <path id="Path_559" data-name="Path 559" d="M457.49,75A5.5,5.5,0,0,0,452,80.49V95.236a.784.784,0,0,0,.083.351l1.486,2.972V110.5a2.353,2.353,0,1,0,4.706,0V75.784A.784.784,0,0,0,457.49,75Zm-.784,35.5a.784.784,0,1,1-1.569,0V98.373a.783.783,0,0,0-.083-.351l-1.486-2.972V80.49a3.929,3.929,0,0,1,3.137-3.843Z" transform="translate(-404.731)" fill="#569040"/>
    <path id="Path_560" data-name="Path 560" d="M93.929,75a18.929,18.929,0,1,0,18.929,18.929A18.95,18.95,0,0,0,93.929,75Zm0,36.289a17.36,17.36,0,1,1,17.36-17.36A17.38,17.38,0,0,1,93.929,111.289Z" transform="translate(-67.157)" fill="#569040"/>
    <path id="Path_561" data-name="Path 561" d="M147.654,135a12.537,12.537,0,0,0-7.687,2.6.784.784,0,0,0,.954,1.245,10.981,10.981,0,0,1,6.733-2.279,11.085,11.085,0,1,1-11.085,11.085,10.981,10.981,0,0,1,2.279-6.733.784.784,0,0,0-1.245-.954,12.537,12.537,0,0,0-2.6,7.687A12.654,12.654,0,1,0,147.654,135Z" transform="translate(-120.882 -53.725)" fill="#569040"/>
    <path id="Path_562" data-name="Path 562" d="M174.517,184.033A9.517,9.517,0,1,0,165,174.517,9.527,9.527,0,0,0,174.517,184.033Zm0-17.465a7.948,7.948,0,1,1-7.948,7.948A7.957,7.957,0,0,1,174.517,166.569Z" transform="translate(-147.745 -80.588)" fill="#569040"/>
    <path id="Path_563" data-name="Path 563" d="M7.843,75.784a.784.784,0,0,0-1.569,0v5.49H4.706v-5.49a.784.784,0,0,0-1.569,0v5.49H1.569v-5.49a.784.784,0,0,0-1.569,0v9.451a5.519,5.519,0,0,0,.58,2.455l.989,1.978V110.5a2.353,2.353,0,1,0,4.706,0V89.669l.989-1.978a5.519,5.519,0,0,0,.58-2.455ZM5.861,86.99,4.789,89.133a.784.784,0,0,0-.083.351V110.5a.784.784,0,1,1-1.569,0V89.484a.784.784,0,0,0-.083-.351L1.983,86.99a3.942,3.942,0,0,1-.414-1.754V82.843H6.275v2.392A3.942,3.942,0,0,1,5.861,86.99Z" fill="#569040"/>
  </g>
</svg>
