<svg id="down-arrow" xmlns="http://www.w3.org/2000/svg" width="9.801" height="9.801" viewBox="0 0 9.801 9.801">
  <g id="Group_2039" data-name="Group 2039" transform="translate(0 5.992)">
    <g id="Group_2038" data-name="Group 2038">
      <path id="Path_535" data-name="Path 535" d="M9.035,313v2.661a.383.383,0,0,1-.383.383h-7.5a.383.383,0,0,1-.383-.383V313H0v2.661a1.15,1.15,0,0,0,1.149,1.149h7.5A1.15,1.15,0,0,0,9.8,315.661V313Z" transform="translate(0 -313)" fill="#569040"/>
    </g>
  </g>
  <g id="Group_2041" data-name="Group 2041" transform="translate(2.521)">
    <g id="Group_2040" data-name="Group 2040">
      <path id="Path_536" data-name="Path 536" d="M135.933,4.512l-1.455,1.455V0h-.766V5.967l-1.455-1.455-.541.541L134.1,7.433l2.379-2.379Z" transform="translate(-131.716)" fill="#569040"/>
    </g>
  </g>
</svg>
