<svg xmlns="http://www.w3.org/2000/svg" width="36.294" height="36.294" viewBox="0 0 36.294 36.294">
  <g id="_1671693" data-name="1671693" transform="translate(-0.5)">
    <path id="Path_574" data-name="Path 574" d="M35.562,21.293a1.226,1.226,0,0,0,1.083-.638,1.181,1.181,0,0,0-.065-1.253l-1.633-2.382A4.449,4.449,0,0,0,30.3,15.237l-6.223,1.537a1.811,1.811,0,0,0-1.8-1.651v-.6a1.811,1.811,0,0,0-1.21-1.7V4.839h.605a2.422,2.422,0,0,0,2.42-2.42V.605A.6.6,0,0,0,23.486,0H13.808A.6.6,0,0,0,13.2.605V2.42a2.422,2.422,0,0,0,2.42,2.42h.605v7.975a1.811,1.811,0,0,0-1.21,1.7v.6a1.812,1.812,0,0,0-1.8,1.709l-11.428-.5a1.217,1.217,0,0,0-1.138.643,1.19,1.19,0,0,0,.068,1.254l1.634,2.383A4.423,4.423,0,0,0,6,22.5a4.517,4.517,0,0,0,1.009-.114l6.2-1.638v.424a1.206,1.206,0,0,0,.605,1.041v1.378a2.422,2.422,0,0,0,2.42,2.42h4.839a2.422,2.422,0,0,0,2.42-2.42V22.213a1.206,1.206,0,0,0,.605-1.041v-.477l11.41.6Zm-4.985-4.879A3.224,3.224,0,0,1,33.948,17.7l1.614,2.381-12.725-.666,1-1.34ZM14.412,2.42V1.21h8.469V2.42a1.211,1.211,0,0,1-1.21,1.21H15.622A1.211,1.211,0,0,1,14.412,2.42Zm5.444,2.42V12.7h-2.42V4.839Zm-3.629,9.678a.605.605,0,0,1,.6-.605h3.63a.605.605,0,0,1,.6.605v.6H16.227ZM6.717,21.211a3.228,3.228,0,0,1-3.37-1.283L1.737,17.541,14.45,18.1l-1,1.334Zm15.56,2.381a1.211,1.211,0,0,1-1.21,1.21H16.227a1.211,1.211,0,0,1-1.21-1.21v-1.21h7.259Zm.605-2.42H14.412V20.163L16.106,17.9a.6.6,0,0,0-.457-.967l-1.226-.053a.6.6,0,0,1,.594-.552h7.259a.606.606,0,0,1,.605.605v.4L21.187,19.6a.6.6,0,0,0,.452.967l1.242.065Zm0,0" transform="translate(0)" fill="#569040"/>
    <path id="Path_575" data-name="Path 575" d="M247.965,418.738v5.444a.6.6,0,1,0,1.21,0v-5.444a.6.6,0,1,0-1.21,0Zm0,0" transform="translate(-229.923 -388.493)" fill="#569040"/>
    <path id="Path_576" data-name="Path 576" d="M141.407,394l-4.163,3.508a.6.6,0,0,0,.78.925l4.163-3.508a.6.6,0,0,0-.78-.925Zm0,0" transform="translate(-126.851 -365.938)" fill="#569040"/>
    <path id="Path_577" data-name="Path 577" d="M299.307,394.07a.606.606,0,0,0,.073.853l4.163,3.508a.605.605,0,1,0,.78-.925L300.16,394a.6.6,0,0,0-.852.073Zm0,0" transform="translate(-277.494 -365.936)" fill="#569040"/>
  </g>
</svg>
