<svg xmlns="http://www.w3.org/2000/svg" width="35.883" height="31.042" viewBox="0 0 35.883 31.042">
  <g id="_882150" data-name="882150" transform="translate(0.202 -34.736)">
    <g id="Group_12943" data-name="Group 12943" transform="translate(0 34.938)">
      <path id="Path_663" data-name="Path 663" d="M34.962,58.047a.52.52,0,0,0,.52-.52V56.522a1.791,1.791,0,0,0-1.73-1.843h-.841V53.614a1.353,1.353,0,0,0-1.351-1.351H27.376a1.353,1.353,0,0,0-1.351,1.351v2.773a56.4,56.4,0,0,0-12.133,0V53.614a1.353,1.353,0,0,0-1.351-1.351H12.21a57,57,0,0,0,8.52-6.379l1.631,2.243a1.353,1.353,0,0,0,1.888.3l3.383-2.461h0a1.353,1.353,0,0,0,.3-1.888l-.626-.861.68-.495a1.791,1.791,0,0,0,.315-2.508l-2.821-3.879A1.791,1.791,0,0,0,23,35.86l-.68.495-.626-.861a1.353,1.353,0,0,0-1.888-.3l-3.383,2.461a1.353,1.353,0,0,0-.3,1.888l1.631,2.243a56.388,56.388,0,0,0-9.812,7.137l-1.2-1.65a2.088,2.088,0,0,0-2.912-.46l-2.2,1.6a2.087,2.087,0,0,0-.46,2.912l.2.268-.68.495A1.792,1.792,0,0,0,.37,54.6l2.821,3.879a1.889,1.889,0,0,0,1.244.766v2.077a1.791,1.791,0,0,0,1.73,1.843h.841v1.065a1.353,1.353,0,0,0,1.351,1.351H12.54a1.353,1.353,0,0,0,1.351-1.351V61.453c1.477.172,3.138.28,4.843.314h.011a.52.52,0,0,0,.01-1.039c-1.72-.035-3.39-.145-4.864-.322V57.434a55.269,55.269,0,0,1,12.133,0v2.972c-1.474.176-3.144.287-4.864.322a.52.52,0,0,0,.01,1.039h.011c1.706-.034,3.366-.142,4.843-.314v2.773a1.353,1.353,0,0,0,1.351,1.351H31.56a1.353,1.353,0,0,0,1.351-1.351V63.161h.841a1.791,1.791,0,0,0,1.73-1.843V59.953a.52.52,0,1,0-1.04,0v1.365a.763.763,0,0,1-.69.8h-.841v-6.4h.841a.763.763,0,0,1,.69.8v1.005A.52.52,0,0,0,34.962,58.047ZM23.606,36.7a.763.763,0,0,1,1.03.244l2.821,3.879a.763.763,0,0,1-.085,1.055l-.68.495L22.926,37.2ZM16.96,38.933a.316.316,0,0,1,.069-.436l3.383-2.461a.316.316,0,0,1,.436.069l5.31,7.3h0l.932,1.281a.316.316,0,0,1-.069.436l-3.383,2.461a.314.314,0,0,1-.436-.069Zm1.406,3.7,1.748,2.4A55.237,55.237,0,0,1,10.3,52.174l-1.748-2.4A55.256,55.256,0,0,1,18.366,42.634ZM4.434,56.522v1.65a.884.884,0,0,1-.4-.309L1.21,53.984A.758.758,0,0,1,1.3,52.929l.68-.495,2.548,3.5A1.974,1.974,0,0,0,4.434,56.522Zm2.571,5.6H6.164a.763.763,0,0,1-.69-.8v-4.8a.887.887,0,0,1,.179-.532.653.653,0,0,1,.511-.272H7v6.4Zm0-8.507v1.065H6.164c-.042,0-.084,0-.126.005l-.022,0a1.657,1.657,0,0,0-.866.344L2.01,50.714a1.046,1.046,0,0,1,.23-1.46l2.2-1.6a1.049,1.049,0,0,1,1.46.23l3.183,4.377H8.356A1.353,1.353,0,0,0,7.005,53.614Zm5.847,10.612a.316.316,0,0,1-.312.312H8.357a.316.316,0,0,1-.312-.312V53.614a.316.316,0,0,1,.312-.312H12.54a.316.316,0,0,1,.312.312Zm19.019,0a.316.316,0,0,1-.312.312H27.376a.316.316,0,0,1-.312-.312V53.614a.316.316,0,0,1,.312-.312H31.56a.316.316,0,0,1,.312.312Z" transform="translate(0 -34.938)" fill="#569040" stroke="#569040" stroke-width="0.4"/>
    </g>
  </g>
</svg>
