<svg xmlns="http://www.w3.org/2000/svg" width="25.899" height="29.202" viewBox="0 0 25.899 29.202">
  <g id="healthcare-and-medical" transform="translate(-28.952)">
    <g id="Group_26" data-name="Group 26" transform="translate(28.952)">
      <path id="Path_20" data-name="Path 20" d="M54.833,27.706l-1.292-7.563a2.153,2.153,0,0,0-1.509-1.708l-3.484-1.051a3.886,3.886,0,0,0-2.7-3.375c.11-.122.213-.244.306-.364a6.763,6.763,0,0,0,1.385-3.007h.269A1.269,1.269,0,0,0,49.08,9.37V8.72a1.277,1.277,0,0,0-.657-1.109V6.049a.428.428,0,1,0-.855,0V7.8A2.636,2.636,0,0,0,47,7.968a.429.429,0,0,0-.06.027c-.046.021-.092.043-.138.068V4.616A1.729,1.729,0,0,0,45.074,2.89h-1.18a1.774,1.774,0,0,0-1.12.4l-.116.095a1.195,1.195,0,0,1-1.512,0l-.116-.095a1.774,1.774,0,0,0-1.12-.4h-1.18A1.729,1.729,0,0,0,37,4.616V8.062c-.046-.025-.092-.047-.138-.068a.428.428,0,0,0-.06-.027,2.637,2.637,0,0,0-.569-.164V3.366A2.514,2.514,0,0,1,38.748.855h6.308a2.514,2.514,0,0,1,2.511,2.511v.672a.428.428,0,1,0,.855,0V3.366A3.37,3.37,0,0,0,45.056,0H38.748a3.37,3.37,0,0,0-3.366,3.366V7.612a1.277,1.277,0,0,0-.657,1.109v.65a1.269,1.269,0,0,0,1.268,1.268h.269a6.763,6.763,0,0,0,1.385,3.007c.094.119.2.241.306.363a3.9,3.9,0,0,0-2.7,3.375l-3.484,1.051a2.153,2.153,0,0,0-1.509,1.708l-.525,3.071a.428.428,0,0,0,.843.144l.525-3.071a1.3,1.3,0,0,1,.913-1.033l3.223-.972v.846a2.14,2.14,0,0,0-1.626,1.346,2.169,2.169,0,0,0-.127.581l-.311,4a1.087,1.087,0,0,0,1.084,1.171h.533a.428.428,0,1,0,0-.855H34.26a.232.232,0,0,1-.231-.25l.311-4a1.313,1.313,0,0,1,.077-.352,1.293,1.293,0,0,1,1.21-.824h.08a1.281,1.281,0,0,1,1.194.766,1.312,1.312,0,0,1,.1.411l.312,4a.232.232,0,0,1-.231.25h-.533a.428.428,0,1,0,0,.855h.533a1.087,1.087,0,0,0,1.084-1.171l-.312-4a2.165,2.165,0,0,0-.165-.678A2.117,2.117,0,0,0,36.1,19.125v-1.1l1.47-.444c.134.282.4.89.924,2.2s1.187,3.021,1.818,4.671a.433.433,0,0,0,.016.041c.421,1.1.829,2.18,1.178,3.111a.428.428,0,0,0,.8,0c.349-.931.757-2.009,1.178-3.111a.428.428,0,0,0,.016-.041c.63-1.649,1.288-3.345,1.816-4.668s.791-1.923.925-2.205l1.47.444v2.526a2.212,2.212,0,1,0,.855,0v-2.27l3.223.972a1.3,1.3,0,0,1,.913,1.033L53.99,27.85a.425.425,0,0,1-.419.5H30.232a.425.425,0,0,1-.419-.5l.426-2.5a.428.428,0,0,0-.843-.144l-.426,2.5a1.28,1.28,0,0,0,1.262,1.5H53.571a1.28,1.28,0,0,0,1.262-1.5ZM47.572,8.674a1.835,1.835,0,0,1,.413-.056.437.437,0,0,0,.209-.05.405.405,0,0,1,.03.151v.65a.413.413,0,0,1-.413.413h-.239ZM36.231,9.783h-.239a.413.413,0,0,1-.413-.413V8.72a.406.406,0,0,1,.03-.151.436.436,0,0,0,.209.05,1.906,1.906,0,0,1,.413.056Zm.855.479V9.139a.6.6,0,0,0,.772-.575V4.616a.872.872,0,0,1,.871-.871h1.18a.917.917,0,0,1,.579.206l.116.095a2.05,2.05,0,0,0,2.595,0l.116-.095a.917.917,0,0,1,.579-.206h1.18a.872.872,0,0,1,.871.871V8.564a.6.6,0,0,0,.772.576v1.123a5.531,5.531,0,0,1-1.232,2.854,5.638,5.638,0,0,1-1.025,1.016.43.43,0,0,0-.038.029,4.168,4.168,0,0,1-5.041,0,.435.435,0,0,0-.038-.029,5.642,5.642,0,0,1-1.025-1.016A5.531,5.531,0,0,1,37.086,10.263ZM44.7,17.171l-2.8,2.094-2.8-2.094a2.028,2.028,0,0,0,.433-1.211v-.689a5.022,5.022,0,0,0,4.736,0v.689A2.028,2.028,0,0,0,44.7,17.171Zm-6.317-.477a1.169,1.169,0,0,0-.721-.036l-.031.008-1.477.446a3.038,3.038,0,0,1,2.521-2.4v1.245A1.131,1.131,0,0,1,38.386,16.694Zm1.161,3.433,0-.006-.064-.162-.011-.029-.062-.155,0-.011-.183-.459-.013-.032-.05-.124-.018-.045-.047-.117-.014-.034-.083-.2-.022-.054-.031-.076-.033-.081-.012-.03-.01-.023-.141-.339v0l-.069-.165-.034-.081,2.409,1.8-1.007.428-.005,0-.42.179Zm1.02,2.618-.255-.66q-.2-.517-.383-.984l.16-.068.652.758Zm1.343,3.476a.426.426,0,0,0-.044-.072c-.193-.511-.438-1.157-.71-1.868l.4-2.186h.692l.4,2.186C42.363,25.026,42.107,25.7,41.91,26.221Zm.5-4.981H41.4l-.479-.557.986-.419.986.419Zm1.083.845-.255.66-.174-.954.652-.758.16.068Q43.691,21.569,43.491,22.085Zm1.638-4.109-.066.156-.009.021-.068.164,0,.011-.062.15-.012.028-.014.035-.028.069-.035.087-.012.029-.092.225-.015.036-.047.116-.019.046-.049.123-.014.035-.181.452-.006.016-.061.154-.012.029-.065.163v0l-.071.18-.421-.179,0,0L42.753,19.7l2.409-1.8Zm1.04-1.31h0a1.169,1.169,0,0,0-.75.028,1.131,1.131,0,0,1-.292-.734V14.715a3.014,3.014,0,0,1,2.523,2.4Zm3.319,6.055a1.357,1.357,0,1,1-1.357-1.357A1.359,1.359,0,0,1,49.487,22.721Z" transform="translate(-28.952)" fill="#569040"/>
    </g>
  </g>
</svg>
