<svg xmlns="http://www.w3.org/2000/svg" width="11.833" height="10.527" viewBox="0 0 11.833 10.527">
  <path id="heart" d="M5.916,10.527a.694.694,0,0,1-.457-.172C4.981,9.938,4.52,9.545,4.113,9.2l0,0A25.024,25.024,0,0,1,1.174,6.439,4.4,4.4,0,0,1,0,3.556,3.7,3.7,0,0,1,.939,1.03,3.182,3.182,0,0,1,3.306,0,2.976,2.976,0,0,1,5.165.642a3.8,3.8,0,0,1,.752.785A3.8,3.8,0,0,1,6.668.642,2.976,2.976,0,0,1,8.527,0a3.182,3.182,0,0,1,2.367,1.03,3.7,3.7,0,0,1,.939,2.526,4.4,4.4,0,0,1-1.174,2.883A25.019,25.019,0,0,1,7.722,9.2c-.407.347-.869.74-1.348,1.159A.694.694,0,0,1,5.916,10.527ZM3.306.693A2.5,2.5,0,0,0,1.448,1.5,3.008,3.008,0,0,0,.693,3.556,3.706,3.706,0,0,0,1.707,6,24.625,24.625,0,0,0,4.561,8.669l0,0c.408.348.871.742,1.352,1.163.484-.422.948-.817,1.357-1.165A24.629,24.629,0,0,0,10.126,6,3.706,3.706,0,0,0,11.14,3.556,3.008,3.008,0,0,0,10.385,1.5,2.5,2.5,0,0,0,8.527.693a2.3,2.3,0,0,0-1.435.5,3.363,3.363,0,0,0-.8.926.438.438,0,0,1-.752,0,3.36,3.36,0,0,0-.8-.926A2.3,2.3,0,0,0,3.306.693Zm0,0" fill="#569040"/>
</svg>
