<svg xmlns="http://www.w3.org/2000/svg" width="28.151" height="28.151" viewBox="0 0 28.151 28.151">
  <path id="home" d="M27.894,12.244l0,0L16.408.759a2.592,2.592,0,0,0-3.665,0L1.264,12.236l-.012.012a2.59,2.59,0,0,0,1.725,4.415c.027,0,.053,0,.08,0h.458v8.45a3.037,3.037,0,0,0,3.034,3.033h4.493a.825.825,0,0,0,.825-.825V20.7a1.386,1.386,0,0,1,1.384-1.384H15.9A1.385,1.385,0,0,1,17.284,20.7v6.625a.825.825,0,0,0,.825.825H22.6a3.037,3.037,0,0,0,3.034-3.033v-8.45h.424a2.592,2.592,0,0,0,1.834-4.423Zm-1.168,2.5a.936.936,0,0,1-.666.276H24.811a.825.825,0,0,0-.825.825v9.275A1.385,1.385,0,0,1,22.6,26.5H18.934V20.7A3.037,3.037,0,0,0,15.9,17.667H13.25A3.037,3.037,0,0,0,10.216,20.7v5.8H6.548a1.385,1.385,0,0,1-1.384-1.384V15.843a.825.825,0,0,0-.825-.825H3.111l-.039,0a.941.941,0,0,1-.649-1.607h0L13.909,1.925a.942.942,0,0,1,1.332,0l11.481,11.48.005.005A.944.944,0,0,1,26.726,14.742Zm0,0" transform="translate(-0.499)" fill="#fff"/>
</svg>
