<svg xmlns="http://www.w3.org/2000/svg" width="24.728" height="24.749" viewBox="0 0 24.728 24.749">
  <g id="_587132" data-name="587132" transform="translate(-0.025 0.2)">
    <g id="Group_2719" data-name="Group 2719" transform="translate(11.163 12.375)">
      <g id="Group_2718" data-name="Group 2718">
        <path id="Path_587" data-name="Path 587" d="M231.453,260.209a1.235,1.235,0,1,0,1.235,1.235A1.236,1.236,0,0,0,231.453,260.209Zm0,1.646a.412.412,0,1,1,.412-.412A.412.412,0,0,1,231.453,261.855Z" transform="translate(-230.218 -260.209)" fill="#569040" stroke="#569040" stroke-width="0.4"/>
      </g>
    </g>
    <g id="Group_2721" data-name="Group 2721" transform="translate(10.259 10.756)">
      <g id="Group_2720" data-name="Group 2720">
        <path id="Path_588" data-name="Path 588" d="M215.355,226.988a2.853,2.853,0,0,0-4.02.016.412.412,0,1,0,.582.582,2.03,2.03,0,0,1,2.86-.011.412.412,0,0,0,.577-.587Z" transform="translate(-211.215 -226.168)" fill="#569040" stroke="#569040" stroke-width="0.4"/>
      </g>
    </g>
    <g id="Group_2723" data-name="Group 2723" transform="translate(9.095 9.11)">
      <g id="Group_2722" data-name="Group 2722">
        <path id="Path_589" data-name="Path 589" d="M193.208,192.853a4.5,4.5,0,0,0-6.349.015.412.412,0,1,0,.582.582,3.677,3.677,0,0,1,5.187-.012.412.412,0,0,0,.579-.585Z" transform="translate(-186.739 -191.55)" fill="#569040" stroke="#569040" stroke-width="0.4"/>
      </g>
    </g>
    <g id="Group_2725" data-name="Group 2725" transform="translate(0.225 0)">
      <g id="Group_2724" data-name="Group 2724" transform="translate(0)">
        <path id="Path_590" data-name="Path 590" d="M20.99,3.584A12.081,12.081,0,0,0,12.524.023a.406.406,0,0,0-.27,0A12.163,12.163,0,0,0,3.788,20.786a12.164,12.164,0,1,0,17.2-17.2Zm2.731,8.19H19.261a19.693,19.693,0,0,0-.915-5.7A12.2,12.2,0,0,0,20.631,4.4,11.3,11.3,0,0,1,23.721,11.774ZM20.044,3.826a11.375,11.375,0,0,1-1.979,1.459,13.339,13.339,0,0,0-.745-1.608,8.773,8.773,0,0,0-1.877-2.414A11.337,11.337,0,0,1,20.044,3.826ZM12.8.871c1.418.182,2.754,1.3,3.8,3.2a12.626,12.626,0,0,1,.734,1.6A11.276,11.276,0,0,1,12.8,6.8Zm-.823,0V6.8A11.279,11.279,0,0,1,7.441,5.683a12.639,12.639,0,0,1,.737-1.61C9.223,2.174,10.559,1.054,11.977.871Zm-2.644.392A8.774,8.774,0,0,0,7.457,3.677a13.347,13.347,0,0,0-.749,1.617A11.371,11.371,0,0,1,4.723,3.836,11.337,11.337,0,0,1,9.334,1.263Zm-5.2,3.151A12.193,12.193,0,0,0,6.428,6.083a19.7,19.7,0,0,0-.911,5.691H1.056A11.3,11.3,0,0,1,4.137,4.414ZM1.056,12.6H5.517a19.693,19.693,0,0,0,.915,5.7,12.193,12.193,0,0,0-2.285,1.67A11.3,11.3,0,0,1,1.056,12.6Zm3.677,7.948a11.375,11.375,0,0,1,1.979-1.459,13.335,13.335,0,0,0,.745,1.608,8.773,8.773,0,0,0,1.877,2.414A11.336,11.336,0,0,1,4.733,20.545ZM11.977,23.5c-1.418-.182-2.754-1.3-3.8-3.2a12.618,12.618,0,0,1-.734-1.6,11.277,11.277,0,0,1,4.533-1.127Zm.412-7.791a.412.412,0,0,0-.412.412v.626a12.1,12.1,0,0,0-4.805,1.167A18.936,18.936,0,0,1,6.34,12.6H8.693a.412.412,0,0,0,0-.823H6.34a18.941,18.941,0,0,1,.829-5.307,12.1,12.1,0,0,0,4.808,1.159v.427a.412.412,0,1,0,.823,0V7.625a12.1,12.1,0,0,0,4.805-1.167,18.934,18.934,0,0,1,.832,5.316H16.074a.412.412,0,0,0,0,.823h2.363a18.941,18.941,0,0,1-.829,5.307A12.1,12.1,0,0,0,12.8,16.745V16.12A.412.412,0,0,0,12.389,15.709ZM12.8,23.5V17.568a11.279,11.279,0,0,1,4.536,1.119A12.636,12.636,0,0,1,16.6,20.3C15.555,22.2,14.219,23.317,12.8,23.5Zm2.644-.392a8.774,8.774,0,0,0,1.877-2.414,13.349,13.349,0,0,0,.749-1.617,11.373,11.373,0,0,1,1.985,1.459A11.337,11.337,0,0,1,15.444,23.108Zm5.2-3.151a12.194,12.194,0,0,0-2.291-1.669,19.7,19.7,0,0,0,.911-5.691h4.461A11.3,11.3,0,0,1,20.64,19.957Z" transform="translate(-0.225 0)" fill="#569040" stroke="#569040" stroke-width="0.4"/>
      </g>
    </g>
  </g>
</svg>
