<svg xmlns="http://www.w3.org/2000/svg" width="36.923" height="28.991" viewBox="0 0 36.923 28.991">
  <g id="_3254434" data-name="3254434" transform="translate(0 -55)">
    <path id="Path_613" data-name="Path 613" d="M33.5,60.481H29.063V57.7a2.707,2.707,0,0,0-2.7-2.7H15.9a2.707,2.707,0,0,0-2.7,2.7v2.776H8.762a3.429,3.429,0,0,0-3.426,3.426v3.786H2a.921.921,0,0,0-.919.919v1.406A.921.921,0,0,0,2,70.938h.162v1.082h-.18A1.985,1.985,0,0,0,0,74v1.55a.541.541,0,1,0,1.082,0V74a.9.9,0,0,1,.9-.9h5.7a.9.9,0,0,1,.9.9v8a.9.9,0,0,1-.9.9h-5.7a.9.9,0,0,1-.9-.9v-3.93a.541.541,0,1,0-1.082,0v3.93a1.985,1.985,0,0,0,1.983,1.983h5.7a1.982,1.982,0,0,0,.493-.062.541.541,0,0,0,.117.03,3.464,3.464,0,0,0,.472.032H33.5a3.429,3.429,0,0,0,3.426-3.426V63.906A3.429,3.429,0,0,0,33.5,60.481ZM14.279,57.7A1.624,1.624,0,0,1,15.9,56.082H26.358A1.624,1.624,0,0,1,27.981,57.7v2.776H26.9V58.065a.9.9,0,0,0-.9-.9H16.262a.9.9,0,0,0-.9.9v2.416H14.279Zm11.539,2.776H16.442V58.245h9.375ZM2.163,68.774H7.5v1.082H2.163Zm1.082,2.163H6.418v1.082H3.245ZM10.76,82.909H9.446a1.97,1.97,0,0,0,.218-.9V78.582h1.082v4.147a1.249,1.249,0,0,0,.014.18Zm1.248,0a.181.181,0,0,1-.18-.18V77.572a2.177,2.177,0,0,1,.433-1.3,3.265,3.265,0,0,0,.649-1.947V71.478a.541.541,0,0,1,1.082,0v2.849a3.265,3.265,0,0,0,.649,1.947,2.177,2.177,0,0,1,.433,1.3v5.156a.181.181,0,0,1-.18.18Zm4.147-.18V78.582H19.4v4.327H16.14A1.26,1.26,0,0,0,16.154,82.729Zm6.31-4.147a.181.181,0,0,1,.18.18v3.966a.181.181,0,0,1-.18.18H20.481V78.582Zm13.378,1.983A2.346,2.346,0,0,1,33.5,82.909H23.712a1.259,1.259,0,0,0,.014-.18v-.9h5.192a.541.541,0,1,0,0-1.082H23.726V78.762A1.264,1.264,0,0,0,22.464,77.5H16.152a3.267,3.267,0,0,0-.648-1.875,2.177,2.177,0,0,1-.433-1.3V71.478a1.623,1.623,0,0,0-3.245,0v2.849a2.177,2.177,0,0,1-.433,1.3,3.266,3.266,0,0,0-.648,1.875H9.664V74A1.985,1.985,0,0,0,7.68,72.019H7.5V70.938h.162a.921.921,0,0,0,.919-.919V63.906a.181.181,0,0,1,.18-.18H33.5a.181.181,0,0,1,.18.18V80.565a.181.181,0,0,1-.18.18H31.443a.541.541,0,1,0,0,1.082H33.5a1.264,1.264,0,0,0,1.262-1.262V63.906A1.264,1.264,0,0,0,33.5,62.644H8.762A1.264,1.264,0,0,0,7.5,63.906v3.786H6.418V63.906a2.346,2.346,0,0,1,2.344-2.344H33.5a2.346,2.346,0,0,1,2.344,2.344Z" fill="#569040"/>
    <path id="Path_614" data-name="Path 614" d="M329.019,196.12V195.4a1.264,1.264,0,0,0-1.262-1.262h-1.875v-1.875A1.263,1.263,0,0,0,324.62,191H323.9a1.264,1.264,0,0,0-1.262,1.262v1.875h-1.875A1.264,1.264,0,0,0,319.5,195.4v.721a1.264,1.264,0,0,0,1.262,1.262h1.875v1.875a1.264,1.264,0,0,0,1.262,1.262h.721a1.263,1.263,0,0,0,1.262-1.262v-1.875h1.875A1.264,1.264,0,0,0,329.019,196.12Zm-3.317.18a.9.9,0,0,0-.9.9v2.055a.181.181,0,0,1-.18.18H323.9a.181.181,0,0,1-.18-.18V197.2a.9.9,0,0,0-.9-.9h-2.055a.181.181,0,0,1-.18-.18V195.4a.181.181,0,0,1,.18-.18h2.055a.9.9,0,0,0,.9-.9v-2.055a.181.181,0,0,1,.18-.18h.721a.181.181,0,0,1,.18.18v2.055a.9.9,0,0,0,.9.9h2.055a.181.181,0,0,1,.18.18v.721a.181.181,0,0,1-.18.18Z" transform="translate(-296.459 -126.192)" fill="#569040"/>
  </g>
</svg>
