<svg xmlns="http://www.w3.org/2000/svg" width="49" height="40.306" viewBox="0 0 49 40.306">
  <g id="Layer_7" data-name="Layer 7" transform="translate(-1 -6)">
    <path id="Path_530" data-name="Path 530" d="M47.629,35.242h-.02C47.218,23.794,38.4,13.8,27.871,12.476V10.742h2.371a2.371,2.371,0,0,0,0-4.742H20.758a2.371,2.371,0,0,0,0,4.742h2.371v1.734C12.6,13.8,3.782,23.794,3.391,35.242h-.02a2.371,2.371,0,0,0,0,4.742H18.387v1.581H7.323a2.371,2.371,0,1,0,0,4.742H43.677a2.371,2.371,0,1,0,0-4.742H32.613V39.984H47.629a2.371,2.371,0,0,0,0-4.742ZM19.968,8.371a.79.79,0,0,1,.79-.79h9.484a.79.79,0,0,1,0,1.581H20.758A.79.79,0,0,1,19.968,8.371Zm4.742,2.371H26.29v1.6c-.263-.011-.526-.023-.79-.023s-.527.012-.79.023ZM25.5,13.9c10.7,0,20.111,9.883,20.529,21.339H4.971C5.389,23.786,14.8,13.9,25.5,13.9ZM44.468,43.935a.79.79,0,0,1-.79.79H7.323a.79.79,0,0,1,0-1.581H43.677A.79.79,0,0,1,44.468,43.935ZM31.032,41.565H19.968V39.984H31.032Zm16.6-3.161H3.371a.79.79,0,1,1,0-1.581H47.629a.79.79,0,0,1,0,1.581Z" transform="translate(0 0)" fill="#569040"/>
  </g>
</svg>
