<svg xmlns="http://www.w3.org/2000/svg" width="25.859" height="34.854" viewBox="0 0 25.859 34.854">
  <g id="_3328267" data-name="3328267" transform="translate(-9 -1)">
    <path id="Path_673" data-name="Path 673" d="M33.285,33.83a1.686,1.686,0,0,1,0-2.7l1.349-1.012a.562.562,0,0,0,.225-.45V1.562A.562.562,0,0,0,34.3,1H12.935A3.94,3.94,0,0,0,9,4.935V32.481a3.376,3.376,0,0,0,3.373,3.373H34.3a.562.562,0,0,0,.337-1.012Zm.45-4.722H15.746V2.124H33.735ZM12.935,2.124h1.686V29.108H12.373a3.356,3.356,0,0,0-2.249.866V4.935a2.814,2.814,0,0,1,2.811-2.811Zm-.562,32.605a2.249,2.249,0,1,1,0-4.5H32.611a2.811,2.811,0,0,0,0,4.5Z" fill="#569040"/>
    <path id="Path_674" data-name="Path 674" d="M23.562,24.113H38.178a.562.562,0,0,0,.562-.562V5.562A.562.562,0,0,0,38.178,5H23.562A.562.562,0,0,0,23,5.562V23.551A.562.562,0,0,0,23.562,24.113Zm.562-17.989H37.616V22.989H24.124Z" transform="translate(-6.13 -1.751)" fill="#569040"/>
    <path id="Path_675" data-name="Path 675" d="M27,41H38.243v1.124H27Z" transform="translate(-7.881 -17.514)" fill="#569040"/>
    <path id="Path_676" data-name="Path 676" d="M23,45H38.74v1.124H23Z" transform="translate(-6.13 -19.265)" fill="#569040"/>
    <path id="Path_677" data-name="Path 677" d="M37.554,16.322l-1,.5L36.1,15a.562.562,0,0,0-.8-.367l-1.9.949-.736-1.29a.585.585,0,0,0-.976,0l-.736,1.287-1.9-.949a.562.562,0,0,0-.8.367l-.455,1.819-1-.5a.562.562,0,0,0-.792.658l1.1,3.861v2.17a.562.562,0,0,0,.562.562h8.995a.562.562,0,0,0,.562-.562v-2.17l1.1-3.859a.562.562,0,0,0-.792-.658Zm-2.373-.367.345,1.381-.87.435-.691-1.209Zm-5.995,0,1.215.608-.691,1.209-.87-.435Zm.5,3.06a.562.562,0,0,0,.739-.225l1.761-3.08,1.761,3.081a.562.562,0,0,0,.739.225l2.23-1.115-.657,2.3H28.11l-.657-2.3Zm6.435,3.432h-7.87V21.322h7.87Z" transform="translate(-7.443 -5.706)" fill="#569040"/>
    <path id="Path_678" data-name="Path 678" d="M36,21h1.124v1.124H36Z" transform="translate(-11.822 -8.757)" fill="#569040"/>
  </g>
</svg>
