<svg xmlns="http://www.w3.org/2000/svg" width="78.391" height="117.541" viewBox="0 0 78.391 117.541">
  <g id="Group_13192" data-name="Group 13192" transform="translate(-145.482 -328)">
    <path id="Path_30767" data-name="Path 30767" d="M399.043-397.989h11.2v60.2H344.117v-60.2h11.669c.589-.589,1.208-1.179,1.827-1.738a29.44,29.44,0,0,1,20.1-7.514,30.007,30.007,0,0,1,19.625,7.6C397.923-399.109,398.483-398.549,399.043-397.989Zm6.335,4.921h-8.486l-.737-.825a27.641,27.641,0,0,0-2.063-2.092,25.364,25.364,0,0,0-16.442-6.394,24.669,24.669,0,0,0-16.8,6.306,25.343,25.343,0,0,0-2.181,2.18l-.737.825h-8.928v50.387h56.369Z" transform="translate(-192.507 767.714)" fill="#569040"/>
    <path id="Path_30768" data-name="Path 30768" d="M331.706-477.1a8.514,8.514,0,0,1,4.361,3.005,3.891,3.891,0,0,1,3.772-2.917,3.823,3.823,0,0,1,3.831,3.831,3.848,3.848,0,0,1-3.831,3.86h-.206a10.048,10.048,0,0,0,3.065,2.888c4.626,2.387,11.433-2.564,8.133-7.691a4.228,4.228,0,0,1-3.978-4.214,4.225,4.225,0,0,1,4.243-4.243,4,4,0,0,1,1.768.412l.029-.088v.088a4.223,4.223,0,0,1,2.416,3.831,4.087,4.087,0,0,1-1.267,3.006c3.212,7.1,11.9,5.923,12.612-1.621l-.206-1.09a4.373,4.373,0,0,1-2.652.914,4.244,4.244,0,0,1-4.243-4.243,4.238,4.238,0,0,1,4.243-4.214,3.743,3.743,0,0,1,1.3.206l-.059-.383c-.177-3.565,1.061-6.365,4.391-8.044,3.33,1.679,4.6,4.479,4.42,8.044l-.059.383a3.807,3.807,0,0,1,1.267-.206,4.219,4.219,0,0,1,4.243,4.214,4.226,4.226,0,0,1-4.243,4.243,4.353,4.353,0,0,1-2.622-.914l-.206,1.09c.707,7.543,9.4,8.722,12.611,1.621a4.088,4.088,0,0,1-1.267-3.006,4.223,4.223,0,0,1,2.416-3.831v-.088l.03.088a4,4,0,0,1,1.768-.412,4.225,4.225,0,0,1,4.243,4.243,4.207,4.207,0,0,1-3.978,4.214c-3.3,5.127,3.506,10.077,8.133,7.691a10.392,10.392,0,0,0,3.064-2.888h-.177a3.854,3.854,0,0,1-3.86-3.86,3.83,3.83,0,0,1,3.86-3.831,3.8,3.8,0,0,1,3.713,2.917,8.588,8.588,0,0,1,4.391-3.005c-1.65,1.827-3.212,3.683-4.656,5.569a3.753,3.753,0,0,1-.913,1.238,45.65,45.65,0,0,0-7.868,15.676c-6.1-5.157-12.346-10.137-24.31-10.343-11.934.206-18.21,5.186-24.281,10.343a45.217,45.217,0,0,0-7.9-15.676,4.218,4.218,0,0,1-.913-1.238C334.918-473.416,333.356-475.273,331.706-477.1Z" transform="translate(-184.751 821.807)" fill="#203f7e"/>
    <path id="Path_30769" data-name="Path 30769" d="M350.873-185.738h61.091v-3.177H350.873Z" transform="translate(-196.729 631.28)" fill="#569040"/>
    <path id="Path_30770" data-name="Path 30770" d="M351.58-207.677h60.8v-6.491h-60.8Z" transform="translate(-197.171 647.06)" fill="#203f7e"/>
    <path id="Path_30771" data-name="Path 30771" d="M528.333-323.819H531.5v-63.568h-3.163Z" transform="translate(-307.623 755.305)" fill="#203f7e"/>
    <path id="Path_30772" data-name="Path 30772" d="M327.778-323.819h3.164v-63.568h-3.164Z" transform="translate(-182.296 755.305)" fill="#203f7e"/>
    <path id="Path_30773" data-name="Path 30773" d="M389.248-353.308a4.321,4.321,0,0,1,.825-1.238,2.706,2.706,0,0,1,1.149-.707,5.017,5.017,0,0,1,1.562-.206q.884,0,1.768.088c.589.059,1.179.118,1.8.177.589.059,1.179.088,1.768.118.442-.03.943-.089,1.532-.177.56-.088,1.179-.236,1.8-.383.619-.206,1.238-.383,1.857-.648a11.485,11.485,0,0,0,1.709-.737l.059.088a18.189,18.189,0,0,0-2.5,1.532,12.118,12.118,0,0,0-1.915,1.738,11.207,11.207,0,0,0-1.444,2.18,17.135,17.135,0,0,0-1.09,2.74c-.442.177-.913.413-1.473.648-.589.265-1.179.56-1.768.854a17.992,17.992,0,0,0-1.8,1.061,13.79,13.79,0,0,0-1.621,1.237,5.5,5.5,0,0,0-1.12,1.415,3.087,3.087,0,0,0-.442,1.591,2.18,2.18,0,0,0,.353,1.237,2.164,2.164,0,0,0,.943.825,3.246,3.246,0,0,0,1.444.295,7.359,7.359,0,0,0,2.21-.354,11.143,11.143,0,0,0,2.122-.943,12.229,12.229,0,0,0,1.945-1.5,10.463,10.463,0,0,0,1.532-1.886,13.8,13.8,0,0,0,.884-1.591c.265-.56.53-1.149.766-1.8.236-.619.471-1.326.707-2.092.265-.088.471-.177.678-.236.206-.088.354-.147.53-.206.147-.059.324-.118.5-.206.177-.059.383-.118.589-.206l-.118.383-1.12,2.682c-.206.53-.442,1.09-.619,1.65a11.364,11.364,0,0,0-.5,1.709,6.783,6.783,0,0,0-.206,1.709,2.837,2.837,0,0,0,.353,1.5,2.548,2.548,0,0,0,.943.913,4.874,4.874,0,0,0,1.355.442,7.534,7.534,0,0,0,1.444.118,10.129,10.129,0,0,0,3.536-.589,9.789,9.789,0,0,0,3.182-1.768,9.4,9.4,0,0,0,1.827-1.738,7.548,7.548,0,0,0,1.149-1.886,5.707,5.707,0,0,0,.383-1.945,3.344,3.344,0,0,0-.589-2,5.141,5.141,0,0,0-1.886-1.562l-.354.383a2.766,2.766,0,0,1,.972,1.061,3.382,3.382,0,0,1,.324,1.473,5.373,5.373,0,0,1-.295,1.591,8.667,8.667,0,0,1-.8,1.68,9.489,9.489,0,0,1-1.208,1.65,10.7,10.7,0,0,1-1.414,1.414,7.712,7.712,0,0,1-1.591.972,4.486,4.486,0,0,1-1.591.383,1.488,1.488,0,0,1-1.061-.471,2.008,2.008,0,0,1-.383-1.179,11.2,11.2,0,0,1,.236-1.8c.147-.678.383-1.414.619-2.18s.53-1.532.825-2.269c.295-.766.589-1.5.854-2.151.295-.678.53-1.238.766-1.709a20.217,20.217,0,0,0,4.921-2.5,3.13,3.13,0,0,0,1.621-2.387,1.507,1.507,0,0,0-.236-.825,1.727,1.727,0,0,0-.648-.56,1.862,1.862,0,0,0-.943-.206,5.032,5.032,0,0,0-1.267.177,6.76,6.76,0,0,0-1.444.442,9.325,9.325,0,0,0-1.444.707,10.375,10.375,0,0,0-1.326.884,13.268,13.268,0,0,0-1.5,1.385,14.59,14.59,0,0,0-1.238,1.621,20.522,20.522,0,0,0-1.12,1.974c-.265.118-.5.177-.707.265-.177.088-.383.147-.53.206-.177.059-.383.118-.56.177-.206.089-.442.177-.678.265.089-.354.206-.8.354-1.3.177-.53.324-1.031.53-1.621.206-.56.442-1.09.678-1.621a8.048,8.048,0,0,1,.8-1.414,2.738,2.738,0,0,1,.854-.884l-.324-.412a8.049,8.049,0,0,1-.943.206,3.235,3.235,0,0,1-.766.059,7.177,7.177,0,0,1-1.738-.206c-.589-.118-1.208-.295-1.827-.471-.648-.177-1.267-.354-1.915-.471a8.988,8.988,0,0,0-1.974-.206,9.361,9.361,0,0,0-3.565.648,8.381,8.381,0,0,0-2.8,1.886,8.22,8.22,0,0,0-1.739,2.947Zm8.516,5.54c-.118.383-.265.854-.471,1.355a17.411,17.411,0,0,1-.678,1.621,17.748,17.748,0,0,1-.884,1.65,7.607,7.607,0,0,1-1.061,1.444,4.542,4.542,0,0,1-1.208,1.061,2.587,2.587,0,0,1-1.385.383,1.112,1.112,0,0,1-.8-.295,1.109,1.109,0,0,1-.295-.707,2.276,2.276,0,0,1,.412-1.149,8.6,8.6,0,0,1,.973-1.267c.442-.412.884-.825,1.414-1.237q.751-.619,1.5-1.149c.5-.354.972-.707,1.414-.973C397.146-347.326,397.5-347.562,397.764-347.768Zm12.818-5.3c.177-.295.383-.648.678-1.061.236-.413.56-.825.884-1.3a14.329,14.329,0,0,1,1.031-1.238,6.1,6.1,0,0,1,1.061-.943,1.773,1.773,0,0,1,.972-.383.494.494,0,0,1,.412.177.42.42,0,0,1,.177.354,1.9,1.9,0,0,1-.53,1.149,11.442,11.442,0,0,1-1.68,1.444c-.353.236-.707.5-1.031.678a8.571,8.571,0,0,1-.972.589C411.289-353.426,410.936-353.249,410.582-353.072Z" transform="translate(-220.341 737.471)" fill="#203f7e"/>
    <path id="Path_30774" data-name="Path 30774" d="M434.556-313.514a12.568,12.568,0,0,0,2.917-2.181,12.144,12.144,0,0,0,2.122-2.681,9.37,9.37,0,0,0,1.09-2.888,6.24,6.24,0,0,0-.089-2.77,4.126,4.126,0,0,0-.972-1.856,3.441,3.441,0,0,0-1.562-.943,4.414,4.414,0,0,0-2.033.118,7.074,7.074,0,0,0-1.974.913,8.887,8.887,0,0,0-1.8,1.562,11.444,11.444,0,0,0-1.473,2.092,9.148,9.148,0,0,0-.913,2.269,8.278,8.278,0,0,0-.383,2.21,14.6,14.6,0,0,0,.029,2.269c.059.737.118,1.5.236,2.269.088.8.206,1.562.265,2.416l-1.532.324a13.047,13.047,0,0,0-2.5,1.031,10.849,10.849,0,0,0-1.886,1.414,5,5,0,0,0-1.061,1.591,2.388,2.388,0,0,0-.118,1.621,1.452,1.452,0,0,0,.943,1.031,2.5,2.5,0,0,0,1.738,0,6.075,6.075,0,0,0,1.621-.678,6.037,6.037,0,0,0,1.473-1.149,14.371,14.371,0,0,0,1.5-1.68c.5.029,1.061.059,1.709.088s1.355.03,2.092,0c.707,0,1.444,0,2.151-.059q1.061-.044,2.033-.177a10.7,10.7,0,0,0,1.621-.295,5.312,5.312,0,0,0,1.532-.766,12.494,12.494,0,0,0,1.562-1.355,20.932,20.932,0,0,0,1.562-1.916l-.354-.324a6.845,6.845,0,0,1-.589.472,2.412,2.412,0,0,1-.5.324,2.24,2.24,0,0,1-.472.177,5.546,5.546,0,0,1-1.267.147,10.991,10.991,0,0,1-1.385-.118c-.442-.059-.884-.118-1.3-.147-1.031-.059-2.063-.118-3.123-.118a22.386,22.386,0,0,0-3.153.206,11.371,11.371,0,0,0,1.031-2.21,9.267,9.267,0,0,0,.472-2.092,11.962,11.962,0,0,0,.118-2.033c0-.648,0-1.3-.03-1.915-.029-.648-.029-1.267-.029-1.856a9.064,9.064,0,0,1,.177-1.8,6.465,6.465,0,0,1,.619-1.739,3.493,3.493,0,0,1,.472-.677,3.472,3.472,0,0,1,.619-.531,2.372,2.372,0,0,1,.678-.324,1.61,1.61,0,0,1,1.385.177,1.952,1.952,0,0,1,.825,1.208,5.621,5.621,0,0,1,.206,1.65,11.438,11.438,0,0,1-.147,1.945,17.718,17.718,0,0,1-.53,2.063,9.406,9.406,0,0,1-.825,1.945,8.26,8.26,0,0,1-.884,1.414,5.7,5.7,0,0,1-1.031,1.031,7.47,7.47,0,0,1-1.355.8Zm-5.186,6.453a6.512,6.512,0,0,1-1.68,1.562,8.631,8.631,0,0,1-2.357,1.031,3.861,3.861,0,0,1-1.267.177c-.324-.059-.5-.177-.56-.442-.089-.295.059-.619.442-.884a6.875,6.875,0,0,1,1.915-.766c.383-.118.8-.236,1.208-.324s.825-.147,1.208-.206A7.418,7.418,0,0,1,429.37-307.061Z" transform="translate(-241.692 717.507)" fill="#203f7e"/>
    <path id="Path_30775" data-name="Path 30775" d="M453.7-328.738a9.4,9.4,0,0,0,1.827-1.738,7.551,7.551,0,0,0,1.149-1.886,5.707,5.707,0,0,0,.383-1.945,3.344,3.344,0,0,0-.589-2,5.143,5.143,0,0,0-1.886-1.562l-.354.383a2.766,2.766,0,0,1,.972,1.061,3.382,3.382,0,0,1,.324,1.473,5.371,5.371,0,0,1-.295,1.591,5.821,5.821,0,0,1-.8,1.68l-1.208,1.65Z" transform="translate(-260.693 724.363)" fill="#203f7e"/>
  </g>
</svg>
