<svg xmlns="http://www.w3.org/2000/svg" width="31.62" height="28.984" viewBox="0 0 31.62 28.984">
  <g id="_1828710" data-name="1828710" transform="translate(0 -0.008)">
    <path id="Path_668" data-name="Path 668" d="M14.492,28.992A14.492,14.492,0,1,1,22.31,2.3a.989.989,0,0,1-1.068,1.664A12.514,12.514,0,1,0,27.008,14.5c0-.413-.02-.821-.058-1.223a.988.988,0,1,1,1.967-.191q.067.7.067,1.414A14.509,14.509,0,0,1,14.492,28.992Zm0,0" fill="#569040"/>
    <path id="Path_669" data-name="Path 669" d="M156.256,37.816a.981.981,0,0,1-.7-.29L149.629,31.6a.988.988,0,0,1,1.4-1.4l5.23,5.23L170.05,21.637a.988.988,0,1,1,1.4,1.4L156.956,37.527A.99.99,0,0,1,156.256,37.816Zm0,0" transform="translate(-140.117 -20.022)" fill="#569040"/>
  </g>
</svg>
