<svg id="_1072465" data-name="1072465" xmlns="http://www.w3.org/2000/svg" width="23.302" height="30.592" viewBox="0 0 23.302 30.592">
  <path id="Path_660" data-name="Path 660" d="M68.066,76.132A8.066,8.066,0,1,0,60,68.066,8.075,8.075,0,0,0,68.066,76.132Zm0-14.34a6.274,6.274,0,1,1-6.274,6.274A6.281,6.281,0,0,1,68.066,61.792Zm0,0" transform="translate(-56.415 -56.415)" fill="#569040"/>
  <path id="Path_661" data-name="Path 661" d="M11.651,30.592c.261-.336,8.693-11.143,9.326-11.956A11.651,11.651,0,1,0,0,11.651a11.554,11.554,0,0,0,2.325,6.985Zm0-28.8a9.859,9.859,0,0,1,7.9,15.762l-7.9,10.12-7.9-10.12a9.859,9.859,0,0,1,7.9-15.762Zm0,0" fill="#569040"/>
  <path id="Path_662" data-name="Path 662" d="M151.792,125.378h1.793a2.689,2.689,0,0,0,0-5.377H150v8.962h1.792Zm1.793-3.585a.9.9,0,1,1,0,1.792h-1.793v-1.792Zm0,0" transform="translate(-141.038 -112.83)" fill="#569040"/>
</svg>
