<svg xmlns="http://www.w3.org/2000/svg" width="37.444" height="37.444" viewBox="0 0 37.444 37.444">
  <g id="_3939688" data-name="3939688" transform="translate(-16 -16)">
    <path id="Path_628" data-name="Path 628" d="M164.594,16a9.2,9.2,0,0,0-5.779,2.326,14.092,14.092,0,0,0-2.018,2.042h-1.643a2.5,2.5,0,0,0-4.913.624v3.12a.624.624,0,0,0,.624.624v1.248h-.624a.624.624,0,0,0-.624.624v3.12a1.874,1.874,0,0,0-1.872,1.872v.88c-.991.581-3.744,2.456-3.744,5.361,0,1.716,1.248,4.056,2.57,6.534,1.153,2.161,2.343,4.393,2.419,5.808l-1.178,2.357a.624.624,0,0,0,.558.9h8.737a.624.624,0,0,0,.558-.9l-1.178-2.357c.076-1.414,1.266-3.647,2.419-5.808,1.321-2.478,2.569-4.818,2.569-6.534,0-2.9-2.754-4.78-3.744-5.361V31.6a1.874,1.874,0,0,0-1.872-1.872v-3.12a.624.624,0,0,0-.624-.624h-.624V24.737a.624.624,0,0,0,.624-.624H156.8a14.093,14.093,0,0,0,2.018,2.042,9.2,9.2,0,0,0,5.779,2.326,6.822,6.822,0,0,0,5.216-2.072,6.095,6.095,0,0,0,0-8.338A6.822,6.822,0,0,0,164.594,16Zm-13.105,4.992a1.248,1.248,0,0,1,2.5,0v2.5h-2.5Zm-2.963,12.481h1.465a7.371,7.371,0,0,0-1.345,2.5H145.8A7.82,7.82,0,0,1,148.526,33.474Zm5.235,0a6.537,6.537,0,0,1,1.748,2.5h-5.54a6.629,6.629,0,0,1,1.747-2.5Zm2.1,4.368a17.779,17.779,0,0,1-1,4.63,28.84,28.84,0,0,0-1.48,7.227H152.1a28.839,28.839,0,0,0-1.48-7.227,17.779,17.779,0,0,1-1-4.63,5.082,5.082,0,0,1,.04-.624h6.162A5.127,5.127,0,0,1,155.857,37.842Zm-10.609,0a3.257,3.257,0,0,1,.061-.624h3.09c-.02.2-.03.41-.03.624a18.507,18.507,0,0,0,1.056,4.989,28.042,28.042,0,0,1,1.426,6.868h-.659c-.243-1.639-1.353-3.721-2.521-5.91C146.48,41.556,145.248,39.246,145.248,37.842Zm4.13,14.353L150,50.947h5.469L156.1,52.2Zm8.425-8.406c-1.168,2.189-2.278,4.271-2.521,5.91h-.659a28.047,28.047,0,0,1,1.426-6.868,18.507,18.507,0,0,0,1.056-4.989c0-.214-.011-.421-.03-.624h3.09a3.255,3.255,0,0,1,.061.624c0,1.4-1.232,3.714-2.423,5.947Zm1.868-7.819h-2.844a7.371,7.371,0,0,0-1.344-2.5h1.465A7.822,7.822,0,0,1,159.671,35.97Zm-3.19-4.368v.624h-7.489V31.6a.625.625,0,0,1,.624-.624h6.241A.625.625,0,0,1,156.481,31.6Zm-5.617-1.872v-2.5h3.744v2.5Zm2.5-3.744h-1.248V24.737h1.248Zm1.872-4.368h1.248v1.248h-1.248ZM168.9,25.56a5.678,5.678,0,0,1-4.3,1.673,8.115,8.115,0,0,1-4.961-2.022,12.887,12.887,0,0,1-1.9-1.933V21.2a12.889,12.889,0,0,1,1.9-1.933,8.115,8.115,0,0,1,4.961-2.022,5.678,5.678,0,0,1,4.3,1.673A4.847,4.847,0,0,1,168.9,25.56Z" transform="translate(-118.015)" fill="#569040"/>
    <path id="Path_629" data-name="Path 629" d="M19.272,19.726a.628.628,0,0,0,.473-.6,2.5,2.5,0,0,1,.262-1,1.645,1.645,0,0,1,1.61-.872,1.645,1.645,0,0,1,1.61.872,2.505,2.505,0,0,1,.262,1,.624.624,0,0,0,.1.346c.147.22,1.583,2.15,6.76,2.15a.624.624,0,1,0,0-1.248c-3.815,0-5.268-1.139-5.631-1.5a3.745,3.745,0,0,0-.363-1.277A2.894,2.894,0,0,0,21.617,16a2.894,2.894,0,0,0-2.742,1.593,3.7,3.7,0,0,0-.335,1.062,3.8,3.8,0,0,0,0,7.171,3.7,3.7,0,0,0,.335,1.062,2.894,2.894,0,0,0,2.742,1.593,2.894,2.894,0,0,0,2.742-1.593,3.747,3.747,0,0,0,.364-1.283c.348-.352,1.778-1.492,5.631-1.492a.624.624,0,1,0,0-1.248c-5.177,0-6.613,1.93-6.76,2.15a.637.637,0,0,0-.1.343,2.5,2.5,0,0,1-.262,1,1.645,1.645,0,0,1-1.61.872,1.645,1.645,0,0,1-1.61-.872,2.505,2.505,0,0,1-.262-1,.624.624,0,0,0-.473-.605,3.3,3.3,0,0,1-1.025-.518,2.382,2.382,0,0,1-1-2A2.693,2.693,0,0,1,19.272,19.726Z" fill="#569040"/>
  </g>
</svg>
