<svg xmlns="http://www.w3.org/2000/svg" width="25.697" height="24.783" viewBox="0 0 25.697 24.783">
  <g id="_953831" data-name="953831" transform="translate(0 -9.1)">
    <g id="Group_2730" data-name="Group 2730" transform="translate(0 9.1)">
      <g id="Group_2729" data-name="Group 2729" transform="translate(0)">
        <path id="Path_591" data-name="Path 591" d="M24.712,13.89a11.167,11.167,0,0,0-4.862-3.448,19.024,19.024,0,0,0-13.985-.021A11.163,11.163,0,0,0,.992,13.854,4.408,4.408,0,0,0,.2,17.906a2.124,2.124,0,0,0,2.036,1.467l3.21,0h0a2.144,2.144,0,0,0,1.65-.769,2.109,2.109,0,0,0,.46-1.734c0-.018-.007-.036-.012-.054l-.169-.657a13.1,13.1,0,0,1,5.474-1.295,13.443,13.443,0,0,1,5.472,1.32l-.172.653c0,.018-.009.037-.012.056a2.109,2.109,0,0,0,.455,1.735,2.144,2.144,0,0,0,1.651.774l3.21,0h0a2.123,2.123,0,0,0,2.036-1.462A4.413,4.413,0,0,0,24.712,13.89Zm-.678,3.586a.6.6,0,0,1-.577.4h0l-3.21,0a.614.614,0,0,1-.474-.22.574.574,0,0,1-.13-.454l.319-1.215a.767.767,0,0,0-.355-.857,14.844,14.844,0,0,0-6.749-1.792H12.8a14.555,14.555,0,0,0-6.7,1.766.767.767,0,0,0-.355.853l.313,1.217a.575.575,0,0,1-.131.455.615.615,0,0,1-.474.219h0l-3.21,0a.6.6,0,0,1-.577-.4,2.9,2.9,0,0,1,.57-2.68c1.749-2.393,6.206-4.126,10.6-4.126h.024c4.4.006,8.867,1.755,10.613,4.158A2.9,2.9,0,0,1,24.034,17.477Z" transform="translate(0 -9.1)" fill="#569040"/>
      </g>
    </g>
    <g id="Group_2732" data-name="Group 2732" transform="translate(2.682 18.123)">
      <g id="Group_2731" data-name="Group 2731" transform="translate(0 0)">
        <path id="Path_592" data-name="Path 592" d="M70.854,193.453,68.46,190.94a.767.767,0,0,0-.555-.238H66.358v-1.045a.767.767,0,1,0-1.534,0V190.7H62.369v-1.045a.767.767,0,1,0-1.534,0V190.7H59.289a.767.767,0,0,0-.555.238l-2.393,2.513a10.505,10.505,0,0,0-2.91,7.275v3.155a.767.767,0,0,0,.767.767H73a.767.767,0,0,0,.767-.767v-3.155A10.5,10.5,0,0,0,70.854,193.453Zm-15.89,9.663v-2.388a8.978,8.978,0,0,1,2.487-6.218l2.167-2.275h7.959l2.167,2.275a8.978,8.978,0,0,1,2.487,6.218v2.388Z" transform="translate(-53.43 -188.89)" fill="#569040"/>
      </g>
    </g>
    <g id="Group_2734" data-name="Group 2734" transform="translate(8.836 23.054)">
      <g id="Group_2733" data-name="Group 2733" transform="translate(0 0)">
        <path id="Path_593" data-name="Path 593" d="M180.059,287.135a4.013,4.013,0,1,0,4.013,4.013A4.018,4.018,0,0,0,180.059,287.135Zm0,6.492a2.479,2.479,0,1,1,2.479-2.48A2.482,2.482,0,0,1,180.059,293.627Z" transform="translate(-176.046 -287.135)" fill="#569040"/>
      </g>
    </g>
  </g>
</svg>
