<svg xmlns="http://www.w3.org/2000/svg" width="35.49" height="26.573" viewBox="0 0 35.49 26.573">
  <g id="_4289335" data-name="4289335" transform="translate(0 -64.323)">
    <path id="Path_653" data-name="Path 653" d="M35.847,105.558c-.241-2.735-.635-4.422-1.555-4.422-.94,0-1.215,1.795-1.362,2.766a45.5,45.5,0,0,0,0,11.377c.3,1.965.691,2.766,1.362,2.766s1.065-.8,1.362-2.766a40.652,40.652,0,0,0,.357-5.688C36.012,108.074,35.945,106.67,35.847,105.558Zm-.943,1.388H33.681q.023-.425.052-.814h1.121q.029.388.052.814Zm-1.249,4.747H34.93q-.017.423-.041.814H33.7q-.023-.39-.041-.814Zm1.306-1.04H33.624q-.008-.395-.009-.814h1.357Q34.969,110.258,34.962,110.653ZM33.619,108.8q.006-.42.018-.814h1.311q.012.394.018.814Zm1.14-3.708h-.933q.048-.452.1-.836h.727Q34.711,104.64,34.759,105.092Zm-.986,8.455h1.04q-.039.433-.084.814h-.873q-.045-.381-.083-.814Zm.7-10.33h-.368a6.776,6.776,0,0,1,.184-.711A6.755,6.755,0,0,1,34.477,103.216ZM34,115.4h.581a8.99,8.99,0,0,1-.29,1.275A9,9,0,0,1,34,115.4Z" transform="translate(-30.316 -34.262)" fill="#569040"/>
    <path id="Path_654" data-name="Path 654" d="M34.956,87.944a29.536,29.536,0,0,0-.009-11.23l.111-.111a1.467,1.467,0,0,0,0-2.077l-.018-.018a1.441,1.441,0,0,0-1.784-.2,25.723,25.723,0,0,0-.722-6.37l.214-.214a1.757,1.757,0,0,0,0-2.486l-.024-.024A1.723,1.723,0,0,0,30.3,65.2a.068.068,0,0,1-.057.019A104.1,104.1,0,0,0,9.324,64.58.52.52,0,1,0,9.4,65.617a103.029,103.029,0,0,1,20.71.63,1.106,1.106,0,0,0,.92-.307.683.683,0,0,1,.961,0l.024.024a.718.718,0,0,1,0,1.016c-.321.321-.72.656-.545,1.064a21.791,21.791,0,0,1,.749,6.32,79.86,79.86,0,0,0-19.989.1,1.469,1.469,0,0,0-2.041,2.11l.126.126c-.618,1.981-.6,6.253-.449,8.363-2.336-.154-4.686-.389-7-.7a.662.662,0,0,0-.6.25.712.712,0,0,1-1.215-.5c0-.5.421-.6.7-1.058a.52.52,0,0,0,.034-.468,25.723,25.723,0,0,1-.751-7.263A24.471,24.471,0,0,1,1.8,68.043c.177-.41-.223-.741-.565-1.083-.628-.628.377-1.641,1.011-1.02a1.1,1.1,0,0,0,.92.306c1.266-.167,2.553-.312,3.825-.432a.52.52,0,0,0-.1-1.035c-1.285.121-2.584.268-3.863.436a.066.066,0,0,1-.057-.018A1.774,1.774,0,0,0,0,66.488a1.9,1.9,0,0,0,.733,1.441A28.286,28.286,0,0,0,0,75.329a28.71,28.71,0,0,0,.721,7.362,1.883,1.883,0,0,0-.7,1.428A1.752,1.752,0,0,0,2.932,85.43c2.322.308,4.685.539,7.032.69a11.1,11.1,0,0,0,.34,1.828,1.49,1.49,0,0,0-.521,1.128,1.463,1.463,0,0,0,2.391,1.132,79.957,79.957,0,0,0,16.041.492.52.52,0,1,0-.073-1.037A78.923,78.923,0,0,1,12.1,89.15c-.481-.063-.492.35-.857.35a.424.424,0,0,1-.3-.723c.28-.28.585-.539.428-.916-.749-1.793-.752-9.295.007-11.049.312-.721-1.035-.953-.4-1.572a.391.391,0,0,1,.557.011.971.971,0,0,0,.794.258,78.874,78.874,0,0,1,20.6,0,.966.966,0,0,0,.805-.269.4.4,0,0,1,.566,0l.018.018a.428.428,0,0,1,0,.606l-.2.2a.674.674,0,0,0-.239.745c.76,1.775.75,9.245.007,11.04a.52.52,0,0,0,.032.463c.225.383.532.445.532.765a.424.424,0,0,1-.723.3.636.636,0,0,0-.568-.234c-.867.117-1.748.221-2.617.308a.52.52,0,1,0,.1,1.034c.811-.082,1.632-.177,2.443-.284a1.463,1.463,0,0,0,1.972-2.159Z" fill="#569040"/>
    <path id="Path_655" data-name="Path 655" d="M169.294,237.31c-.583,0-.92.593-1.162,2.049a28.862,28.862,0,0,0,0,7.964c.242,1.455.579,2.049,1.162,2.049s.92-.593,1.162-2.049a28.86,28.86,0,0,0,0-7.964C170.214,237.9,169.877,237.31,169.294,237.31Zm0,10.517a25.454,25.454,0,0,1,0-8.972,25.455,25.455,0,0,1,0,8.972Z" transform="translate(-156.221 -160.997)" fill="#569040"/>
  </g>
</svg>
