<svg xmlns="http://www.w3.org/2000/svg" width="29.179" height="32.817" viewBox="0 0 29.179 32.817">
  <g id="_29275" data-name="29275" transform="translate(-18.146)">
    <g id="Group_12942" data-name="Group 12942" transform="translate(18.146)">
      <path id="Path_658" data-name="Path 658" d="M26.416,0V.021c-4.518.205-7.984,2.1-8.244,4.537h-.026v23.6a.784.784,0,0,0,.021.178c.219,2.406,4.352,4.476,9.062,4.476,3.44,0,6.569-1.106,8.1-2.639h12V0H26.416ZM45.7,1.624V28.554H36.267c.013-.07.016-.142.022-.214a.784.784,0,0,0,.021-.178V4.558h-.026a4.141,4.141,0,0,0-2.233-2.934ZM32.4,30.178a12.752,12.752,0,0,1-5.175,1.015c-4.526,0-7.419-1.977-7.455-3.03h0v-.02h0V7.646a12.084,12.084,0,0,0,6.646,2.032c.268.012.538.021.812.021s.544-.009.812-.021a12.083,12.083,0,0,0,6.646-2.032v20.5h0v.02h0a.9.9,0,0,1-.121.392,2.839,2.839,0,0,1-.759.812A6.988,6.988,0,0,1,32.4,30.178ZM26.416,1.643c.265-.012.536-.02.812-.02s.547.007.812.02c3.689.18,6.277,1.569,6.61,2.914a1.262,1.262,0,0,1,.036.291,1.311,1.311,0,0,1-.12.521,2.42,2.42,0,0,1-.626.812,9.97,9.97,0,0,1-5.9,1.873q-.4.02-.812.02c-.276,0-.547-.007-.812-.02a9.971,9.971,0,0,1-5.9-1.873,2.419,2.419,0,0,1-.626-.812,1.31,1.31,0,0,1-.12-.521,1.2,1.2,0,0,1,.037-.291C20.139,3.212,22.727,1.824,26.416,1.643Z" transform="translate(-18.146)" fill="#569040"/>
      <path id="Path_659" data-name="Path 659" d="M70.3,32.784a6.106,6.106,0,0,0,2.145.518c.272.022.545.035.812.035s.54-.012.812-.035a6.106,6.106,0,0,0,2.145-.518,1.821,1.821,0,0,0,.881-.812,1.214,1.214,0,0,0,.117-.521,1.237,1.237,0,0,0-.037-.291c-.234-.984-1.653-1.441-3.105-1.56-.272-.022-.545-.035-.812-.035s-.54.012-.812.035c-1.452.119-2.871.575-3.105,1.56a1.24,1.24,0,0,0-.037.291,1.214,1.214,0,0,0,.117.521A1.821,1.821,0,0,0,70.3,32.784Zm3.769-1.115a7.634,7.634,0,0,1-1.624,0,5.44,5.44,0,0,1-1.12-.218,5.387,5.387,0,0,1,1.12-.218,7.616,7.616,0,0,1,1.624,0,5.387,5.387,0,0,1,1.12.218A5.407,5.407,0,0,1,74.064,31.669Z" transform="translate(-64.17 -26.601)" fill="#569040"/>
    </g>
  </g>
</svg>
