<svg id="_489870" data-name="489870" xmlns="http://www.w3.org/2000/svg" width="45.718" height="45.718" viewBox="0 0 45.718 45.718">
  <g id="Group_2673" data-name="Group 2673" transform="translate(0 19.811)">
    <g id="Group_2672" data-name="Group 2672">
      <path id="Path_564" data-name="Path 564" d="M28.955,217.221v-6.935A2.289,2.289,0,0,0,26.669,208H5.334a2.289,2.289,0,0,0-2.286,2.286v6.935A3.817,3.817,0,0,0,0,220.953v12.191a.762.762,0,0,0,.762.762H3.81a.762.762,0,0,0,.762-.762v-2.286H27.431v2.286a.762.762,0,0,0,.762.762h3.048a.762.762,0,0,0,.762-.762V220.953A3.817,3.817,0,0,0,28.955,217.221ZM4.572,210.286a.763.763,0,0,1,.762-.762H26.669a.763.763,0,0,1,.762.762v6.858H25.907V214.1a2.289,2.289,0,0,0-2.286-2.286H19.049a2.289,2.289,0,0,0-2.286,2.286v3.048H15.239V214.1a2.289,2.289,0,0,0-2.286-2.286H8.382A2.289,2.289,0,0,0,6.1,214.1v3.048H4.572Zm19.811,3.81v3.048h-6.1V214.1a.763.763,0,0,1,.762-.762h4.572A.763.763,0,0,1,24.383,214.1Zm-10.668,0v3.048H7.62V214.1a.763.763,0,0,1,.762-.762h4.572A.763.763,0,0,1,13.715,214.1Zm16.763,18.287H28.955V230.1a.762.762,0,0,0-.762-.762H3.81a.762.762,0,0,0-.762.762v2.286H1.524v-6.1H30.479Zm0-7.62H1.524v-3.81a2.289,2.289,0,0,1,2.286-2.286H28.193a2.289,2.289,0,0,1,2.286,2.286Z" transform="translate(0 -208)" fill="#569040"/>
    </g>
  </g>
  <g id="Group_2675" data-name="Group 2675" transform="translate(33.527 28.955)">
    <g id="Group_2674" data-name="Group 2674">
      <path id="Path_565" data-name="Path 565" d="M363.43,304H352.762a.762.762,0,0,0-.762.762v11.43h1.524V311.62h9.144v4.572h1.524v-11.43A.762.762,0,0,0,363.43,304Zm-.762,6.1h-9.144v-4.572h9.144Z" transform="translate(-352 -304)" fill="#569040"/>
    </g>
  </g>
  <g id="Group_2677" data-name="Group 2677" transform="translate(38.094 31.946)">
    <g id="Group_2676" data-name="Group 2676" transform="translate(0 0)">
      <rect id="Rectangle_65" data-name="Rectangle 65" width="2.94" height="1.604" fill="#569040"/>
    </g>
  </g>
  <g id="Group_2679" data-name="Group 2679" transform="translate(35.812 17.525)">
    <g id="Group_2678" data-name="Group 2678">
      <path id="Path_566" data-name="Path 566" d="M383.578,189.092l-1.524-4.572a.762.762,0,0,0-.723-.52h-3.048a.762.762,0,0,0-.723.521l-1.524,4.572a.762.762,0,0,0,.723,1h2.286v2.286h-1.524v1.524h4.572v-1.524h-1.524V190.1h2.286a.763.763,0,0,0,.723-1Zm-5.762-.52,1.016-3.048h1.95l1.016,3.048Z" transform="translate(-375.997 -184)" fill="#569040"/>
    </g>
  </g>
  <g id="Group_2681" data-name="Group 2681" transform="translate(0 0)">
    <g id="Group_2680" data-name="Group 2680">
      <path id="Path_567" data-name="Path 567" d="M45.268,9.972,23.171.066a.766.766,0,0,0-.623,0L.45,9.972a.763.763,0,0,0-.45.7v9.144H1.524V11.161L22.859,1.6l21.335,9.564v8.65h1.524V10.668A.763.763,0,0,0,45.268,9.972Z" transform="translate(0 0)" fill="#569040"/>
    </g>
  </g>
  <g id="Group_2683" data-name="Group 2683" transform="translate(17.525 6.096)">
    <g id="Group_2682" data-name="Group 2682">
      <path id="Path_568" data-name="Path 568" d="M194.594,68.445l-1.5.253a3.752,3.752,0,0,1,.053.635,3.806,3.806,0,1,1-2.539-3.593l.507-1.437a5.334,5.334,0,1,0,3.555,5.03A5.391,5.391,0,0,0,194.594,68.445Z" transform="translate(-184 -64)" fill="#569040"/>
    </g>
  </g>
  <g id="Group_2685" data-name="Group 2685" transform="translate(20.796 6.319)">
    <g id="Group_2684" data-name="Group 2684">
      <path id="Path_569" data-name="Path 569" d="M225.2,66.344l-4.8,4.8-.985-.985-1.077,1.077,1.524,1.524a.762.762,0,0,0,1.077,0l5.334-5.334Z" transform="translate(-218.344 -66.344)" fill="#569040"/>
    </g>
  </g>
</svg>
