<svg xmlns="http://www.w3.org/2000/svg" width="37.048" height="39.127" viewBox="0 0 37.048 39.127">
  <g id="_2890461" data-name="2890461" transform="translate(-32.778 -26)">
    <path id="Path_630" data-name="Path 630" d="M137.048,67.971l.179-1.25a.631.631,0,0,0-1.25-.179l-.179,1.25a.631.631,0,0,0,.535.714.622.622,0,0,0,.09.006A.631.631,0,0,0,137.048,67.971Z" transform="translate(-86.679 -33.69)" fill="#569040"/>
    <path id="Path_631" data-name="Path 631" d="M133.224,90.141l.3-2.112a.631.631,0,0,0-1.25-.179l-.3,2.112a.631.631,0,0,0,.535.714.647.647,0,0,0,.09.006A.632.632,0,0,0,133.224,90.141Z" transform="translate(-83.458 -51.636)" fill="#569040"/>
    <path id="Path_632" data-name="Path 632" d="M129.109,114.621l-.179,1.25a.631.631,0,0,0,1.25.179l.179-1.25a.631.631,0,0,0-1.25-.179Z" transform="translate(-80.895 -74.183)" fill="#569040"/>
    <path id="Path_633" data-name="Path 633" d="M153.824,68.5a.631.631,0,0,0,.535-.714l-.179-1.25a.631.631,0,0,0-1.25.179l.179,1.25a.631.631,0,0,0,.624.542A.67.67,0,0,0,153.824,68.5Z" transform="translate(-101.108 -33.688)" fill="#569040"/>
    <path id="Path_634" data-name="Path 634" d="M156.9,90.678a.643.643,0,0,0,.09-.006.631.631,0,0,0,.535-.714l-.3-2.112a.631.631,0,0,0-1.25.179l.3,2.112A.631.631,0,0,0,156.9,90.678Z" transform="translate(-103.671 -51.632)" fill="#569040"/>
    <path id="Path_635" data-name="Path 635" d="M160.6,116.593a.644.644,0,0,0,.09-.006.631.631,0,0,0,.535-.714l-.179-1.25a.631.631,0,0,0-1.25.179l.179,1.25A.631.631,0,0,0,160.6,116.593Z" transform="translate(-106.892 -74.185)" fill="#569040"/>
    <path id="Path_636" data-name="Path 636" d="M169.259,66.071a.63.63,0,0,0-.259.854l.594,1.114a.631.631,0,1,0,1.113-.594l-.594-1.114A.629.629,0,0,0,169.259,66.071Z" transform="translate(-114.585 -33.686)" fill="#569040"/>
    <path id="Path_637" data-name="Path 637" d="M182.207,91.693a.631.631,0,0,0,1.114-.594l-1.287-2.413a.631.631,0,0,0-1.114.594Z" transform="translate(-124.625 -52.514)" fill="#569040"/>
    <path id="Path_638" data-name="Path 638" d="M197.828,120.981a.631.631,0,1,0,1.113-.594l-.594-1.114a.631.631,0,1,0-1.113.594Z" transform="translate(-138.364 -78.276)" fill="#569040"/>
    <path id="Path_639" data-name="Path 639" d="M117.494,68.3a.631.631,0,0,0,.854-.26l.594-1.114a.631.631,0,1,0-1.113-.594l-.594,1.114a.631.631,0,0,0,.259.854Z" transform="translate(-70.986 -33.689)" fill="#569040"/>
    <path id="Path_640" data-name="Path 640" d="M101.18,91.954a.631.631,0,0,0,.854-.26l1.287-2.413a.631.631,0,0,0-1.114-.594L100.92,91.1A.631.631,0,0,0,101.18,91.954Z" transform="translate(-57.247 -52.515)" fill="#569040"/>
    <path id="Path_641" data-name="Path 641" d="M89.259,121.244a.631.631,0,0,0,.854-.26l.594-1.114a.631.631,0,1,0-1.113-.594L89,120.39a.63.63,0,0,0,.259.854Z" transform="translate(-47.207 -78.279)" fill="#569040"/>
    <path id="Path_642" data-name="Path 642" d="M125.556,31.049h6.311a.631.631,0,0,0,.371-1.142l-2.9-2.1V26.631a.631.631,0,0,0-1.262,0V27.8l-2.9,2.1a.631.631,0,0,0,.371,1.142Zm3.155-2.143,1.212.881H127.5Z" transform="translate(-77.527)" fill="#569040"/>
    <circle id="Ellipse_34" data-name="Ellipse 34" cx="0.712" cy="0.712" r="0.712" transform="translate(32.778 49.126)" fill="#569040"/>
    <path id="Path_643" data-name="Path 643" d="M245.557,87.852a.631.631,0,0,0-.631.631v.893a.631.631,0,1,0,1.262,0v-.893A.631.631,0,0,0,245.557,87.852Z" transform="translate(-178.595 -52.093)" fill="#569040"/>
    <path id="Path_644" data-name="Path 644" d="M245.557,110.488a.631.631,0,0,0-.631.631v.893a.631.631,0,1,0,1.262,0v-.893A.631.631,0,0,0,245.557,110.488Z" transform="translate(-178.595 -71.158)" fill="#569040"/>
    <path id="Path_645" data-name="Path 645" d="M232.3,102h-.893a.631.631,0,0,0,0,1.262h.893a.631.631,0,0,0,0-1.262Z" transform="translate(-166.678 -64.009)" fill="#569040"/>
    <path id="Path_646" data-name="Path 646" d="M254.938,102h-.893a.631.631,0,0,0,0,1.262h.893a.631.631,0,0,0,0-1.262Z" transform="translate(-185.744 -64.009)" fill="#569040"/>
    <path id="Path_647" data-name="Path 647" d="M84.063,138H57.557a.631.631,0,0,0-.631.631v20.195a.631.631,0,0,0,.631.631H84.063a.631.631,0,0,0,.631-.631V138.631A.631.631,0,0,0,84.063,138Zm-.631,20.195H58.188V139.262H83.432Z" transform="translate(-20.256 -94.33)" fill="#569040"/>
    <path id="Path_648" data-name="Path 648" d="M105.965,194a.631.631,0,0,0-.631.631v4.418H95.791a3.151,3.151,0,0,0-3.078-2.524H90.188v-1.893a.631.631,0,1,0-1.262,0V204.1a.631.631,0,1,0,1.262,0v-1.262h15.146V204.1a.631.631,0,1,0,1.262,0v-9.466A.631.631,0,0,0,105.965,194Zm-13.253,3.787a1.893,1.893,0,0,1,1.781,1.262H90.188v-1.262Zm-2.524,3.787v-1.262h15.146v1.262Z" transform="translate(-47.207 -141.494)" fill="#569040"/>
    <path id="Path_649" data-name="Path 649" d="M124.188,152.335l-.282,1.641a.631.631,0,0,0,.915.665l1.474-.775,1.474.775a.631.631,0,0,0,.915-.665l-.282-1.641,1.193-1.162a.631.631,0,0,0-.35-1.077l-1.647-.24-.737-1.493a.657.657,0,0,0-1.132,0l-.737,1.493-1.647.24a.631.631,0,0,0-.35,1.077Zm1.315-1.277a.631.631,0,0,0,.475-.346l.318-.644.318.644a.631.631,0,0,0,.475.346l.711.1-.515.5a.631.631,0,0,0-.181.559l.121.707-.636-.334a.63.63,0,0,0-.587,0l-.636.334.121-.707a.632.632,0,0,0-.181-.559l-.515-.5Z" transform="translate(-75.742 -102.786)" fill="#569040"/>
    <path id="Path_650" data-name="Path 650" d="M172.188,152.335l-.282,1.641a.631.631,0,0,0,.915.665l1.474-.775,1.474.775a.631.631,0,0,0,.915-.665l-.282-1.641,1.193-1.162a.631.631,0,0,0-.35-1.077l-1.647-.24-.737-1.493a.657.657,0,0,0-1.132,0l-.737,1.493-1.647.24a.631.631,0,0,0-.35,1.077Zm1.315-1.277a.631.631,0,0,0,.475-.346l.318-.644.318.644a.631.631,0,0,0,.475.346l.711.1-.515.5a.631.631,0,0,0-.181.559l.121.707-.636-.334a.63.63,0,0,0-.587,0l-.636.334.121-.707a.632.632,0,0,0-.181-.559l-.515-.5Z" transform="translate(-116.169 -102.786)" fill="#569040"/>
    <path id="Path_651" data-name="Path 651" d="M76.188,152.335l-.282,1.641a.631.631,0,0,0,.915.665l1.474-.775,1.474.775a.631.631,0,0,0,.915-.665l-.282-1.641,1.193-1.162a.631.631,0,0,0-.35-1.077l-1.647-.24-.737-1.493a.657.657,0,0,0-1.132,0l-.737,1.493-1.647.24a.631.631,0,0,0-.35,1.077Zm1.315-1.277a.631.631,0,0,0,.475-.346l.318-.644.318.644a.63.63,0,0,0,.475.346l.711.1-.515.5a.631.631,0,0,0-.181.559l.121.707-.636-.334a.63.63,0,0,0-.587,0l-.636.334.121-.707a.632.632,0,0,0-.181-.559l-.515-.5Z" transform="translate(-35.315 -102.786)" fill="#569040"/>
    <path id="Path_652" data-name="Path 652" d="M55.135,58.418a2.209,2.209,0,1,0-2.209-2.209A2.211,2.211,0,0,0,55.135,58.418Zm0-3.155a.947.947,0,1,1-.947.947A.948.948,0,0,1,55.135,55.262Z" transform="translate(-16.887 -23.582)" fill="#569040"/>
  </g>
</svg>
