<svg xmlns="http://www.w3.org/2000/svg" width="23.408" height="30.226" viewBox="0 0 23.408 30.226">
  <g id="_5731574" data-name="5731574" transform="translate(-57.747)">
    <g id="Group_12926" data-name="Group 12926" transform="translate(57.747 0)">
      <path id="Path_618" data-name="Path 618" d="M80.532,13.592,79.19,9.8a1.962,1.962,0,0,0-1.846-1.3h-4.22a1.962,1.962,0,0,0-1.846,1.3l-.369,1.042A2.984,2.984,0,0,1,70.1,8.793V8.169h.061a1.205,1.205,0,0,0,1.2-1.2v-1.2a1.205,1.205,0,0,0-1.2-1.2H67.965V2.968h1.667A1.23,1.23,0,0,0,70.859,1.74V1.228A1.23,1.23,0,0,0,69.631,0H60.663a2.92,2.92,0,0,0-2.916,2.916V3.8a1.21,1.21,0,0,0,1.209,1.209h.55A1.21,1.21,0,0,0,60.715,3.8V3.281a.313.313,0,0,1,.312-.312h3.356V4.557H62.191a1.205,1.205,0,0,0-1.2,1.2v1.2a1.205,1.205,0,0,0,1.2,1.2h.061v.624a2.989,2.989,0,0,1-1.137,2.353l-1.248.991A3.87,3.87,0,0,0,58.4,15.184V28.149a2.08,2.08,0,0,0,2.078,2.078h9.975a.443.443,0,0,0,0-.886H60.473a1.193,1.193,0,0,1-1.192-1.192V23.675h11.1l.991,4.975a1.963,1.963,0,0,0,1.92,1.576h3.875a1.963,1.963,0,0,0,1.92-1.576l.944-4.741a.443.443,0,0,0-.868-.173l-.944,4.741a1.075,1.075,0,0,1-1.052.863H73.3a1.075,1.075,0,0,1-1.052-.863l-1.854-9.308a9.986,9.986,0,0,1,.381-5.282l.27-.761h2.517v.436a1.408,1.408,0,0,0,1.406,1.406H75.5a1.408,1.408,0,0,0,1.406-1.406v-.436h2.517l.27.761a9.985,9.985,0,0,1,.381,5.282l-.538,2.7a.443.443,0,1,0,.868.173l.538-2.7a10.873,10.873,0,0,0-.414-5.75ZM73.124,9.385h4.22a1.074,1.074,0,0,1,1.011.715l.1.27H72.017l.1-.27A1.075,1.075,0,0,1,73.124,9.385ZM59.83,3.281V3.8a.324.324,0,0,1-.324.324h-.55a.324.324,0,0,1-.324-.324V2.916A2.033,2.033,0,0,1,60.663.886h8.968a.343.343,0,0,1,.343.343V1.74a.343.343,0,0,1-.343.343h-8.6A1.2,1.2,0,0,0,59.83,3.281Zm5.44-.312h1.81V4.557H65.27ZM69.314,17.2H63.181a.443.443,0,0,0,0,.886H69.35a10.857,10.857,0,0,0,.173,1.252l.686,3.447H59.281v-4.7H61.1a.443.443,0,1,0,0-.886H59.281V15.184a2.989,2.989,0,0,1,1.137-2.353l1.248-.991a3.869,3.869,0,0,0,1.472-3.047V8.169h1.926a.443.443,0,0,0,0-.886H62.191a.319.319,0,0,1-.319-.319v-1.2a.319.319,0,0,1,.319-.319h7.967a.319.319,0,0,1,.319.319v1.2a.319.319,0,0,1-.319.319H66.905a.443.443,0,1,0,0,.886h2.306v.624a3.867,3.867,0,0,0,1.375,2.966l-.649,1.833a10.868,10.868,0,0,0-.623,3.613Zm6.71-3.643a.521.521,0,0,1-.521.521h-.538a.521.521,0,0,1-.521-.521v-.436h1.58ZM71.355,12.24l.349-.985h7.061l.349.985Z" transform="translate(-57.747 0)" fill="#569040"/>
      <path id="Path_619" data-name="Path 619" d="M302.837,305.233a3.018,3.018,0,1,0,3.018-3.018A3.022,3.022,0,0,0,302.837,305.233Zm5.151,0a2.133,2.133,0,1,1-2.133-2.133A2.135,2.135,0,0,1,307.988,305.233Z" transform="translate(-288.368 -284.374)" fill="#569040"/>
    </g>
  </g>
</svg>
