<svg xmlns="http://www.w3.org/2000/svg" width="35" height="24.609" viewBox="0 0 35 24.609">
  <g id="_2949960" data-name="2949960" transform="translate(0 -76.002)">
    <g id="Group_12928" data-name="Group 12928" transform="translate(0 76.002)">
      <path id="Path_620" data-name="Path 620" d="M152.406,208.192a2.053,2.053,0,0,0-2.051-2.051h-3.076a.684.684,0,1,0,0,1.367h3.076a.684.684,0,0,1,.684.684v2.734a.684.684,0,0,1-.684.684h-12.3a.684.684,0,0,1-.684-.684v-2.734a.684.684,0,0,1,.684-.684h3.076a.684.684,0,1,0,0-1.367h-3.076A2.053,2.053,0,0,0,136,208.192v2.734a2.053,2.053,0,0,0,2.051,2.051h12.3a2.053,2.053,0,0,0,2.051-2.051Z" transform="translate(-126.703 -197.245)" fill="#569040"/>
      <path id="Path_621" data-name="Path 621" d="M33.236,92.663a2.491,2.491,0,0,0-1.392-2.191c-.006-.238-.012-.475-.019-.707-.015-.505-.029-.983-.029-1.448s.014-.943.029-1.449c.07-2.387.149-5.092-1.431-6.718a5.348,5.348,0,0,0-4.046-1.4c-.526,0-1.034.019-1.529.049a2.553,2.553,0,0,0-3.971-2.355A3.183,3.183,0,0,0,16.262,79.4c-1.061-.057-2.062-.177-3.1-.3a38.83,38.83,0,0,0-4.141-.344A2.774,2.774,0,0,0,5.9,77.9a3.534,3.534,0,1,0-2.8,6.131c.021.05.045.1.069.146-.052.883-.027,1.8,0,2.688.015.505.029.983.029,1.449s-.014.943-.029,1.449c-.07,2.387-.149,5.092,1.431,6.718a5.347,5.347,0,0,0,4.046,1.4c.2,0,.4,0,.6-.008a3.182,3.182,0,0,0,5.216,1.971,2.554,2.554,0,0,0,3.417-2.4c0-.081,0-.161-.012-.24a37.446,37.446,0,0,1,3.966.333,36.513,36.513,0,0,0,4.506.347l.215,0a3.53,3.53,0,0,0,4.7-.033,2.776,2.776,0,0,0,1.977-5.188ZM17.871,78.389a1.815,1.815,0,0,1,2.641-.559.684.684,0,0,0,.9-.086,1.185,1.185,0,0,1,1.995,1.17c-.532.055-1.052.117-1.565.179a35.777,35.777,0,0,1-4.21.336A1.8,1.8,0,0,1,17.871,78.389Zm-16.5,2.136a2.167,2.167,0,0,1,3.854-1.36.684.684,0,0,0,.9.148A1.408,1.408,0,1,1,7.049,81.9a.684.684,0,0,0-.574.855,1.121,1.121,0,1,1-2.186.495.684.684,0,0,0-.672-.561H3.534a2.169,2.169,0,0,1-2.167-2.167ZM15.335,98.633a1.181,1.181,0,0,1-.638-.186.684.684,0,0,0-.894.14,1.815,1.815,0,1,1,.014-2.3.684.684,0,0,0,.893.15,1.186,1.186,0,1,1,.625,2.194Zm2.165-2.8h-.185a2.552,2.552,0,0,0-2.814-.8,3.183,3.183,0,0,0-5.142,1.474c-.239.008-.474.012-.708.012a4.084,4.084,0,0,1-3.065-.989c-1.177-1.211-1.11-3.506-1.045-5.725.014-.493.029-1,.029-1.489s-.015-1-.029-1.489-.028-.97-.029-1.453A2.488,2.488,0,0,0,7.88,83.09a2.77,2.77,0,0,0,1.739-2.956c1.163.049,2.245.179,3.375.316A36.5,36.5,0,0,0,17.5,80.8a36.506,36.506,0,0,0,4.506-.347,34.921,34.921,0,0,1,4.342-.337,4.084,4.084,0,0,1,3.065.989c1.177,1.211,1.11,3.506,1.045,5.725-.014.493-.029,1-.029,1.489s.015,1,.029,1.488c0,.141.008.285.012.429a2.487,2.487,0,0,0-2.008,1.485A3.532,3.532,0,0,0,25.6,96.506c-1.246-.042-2.39-.179-3.59-.324A36.52,36.52,0,0,0,17.5,95.836Zm14.725.82a1.4,1.4,0,0,1-.751-.217.683.683,0,0,0-.9.148A2.167,2.167,0,1,1,28.89,93.06h.083a.684.684,0,0,0,.672-.561A1.121,1.121,0,1,1,31.831,93a.684.684,0,0,0,.574.855,1.408,1.408,0,0,1-.18,2.8Z" transform="translate(0 -76.002)" fill="#569040"/>
      <path id="Path_622" data-name="Path 622" d="M246.681,207.508a.684.684,0,1,0,0-1.367h0a.684.684,0,0,0,0,1.367Z" transform="translate(-229.181 -197.245)" fill="#569040"/>
    </g>
  </g>
</svg>
