<svg xmlns="http://www.w3.org/2000/svg" width="210.717" height="116.496" viewBox="0 0 210.717 116.496">
  <g id="Hotel_Logo" data-name="Hotel Logo" transform="translate(-72.863 -101.469)">
    <g id="Plan_1" data-name="Plan 1" transform="translate(72.863 101.469)">
      <path id="Path_30766" data-name="Path 30766" d="M84.5-143.511v14.339H81.462v-5.946H75.927v5.946H72.863v-14.339h3.064v5.854h5.535v-5.854Zm9.239-.092a8.964,8.964,0,0,1,3.773.755,4.978,4.978,0,0,1,2.7,2.9,11.349,11.349,0,0,1,.595,3.819,9.178,9.178,0,0,1-.732,3.773,5.119,5.119,0,0,1-2.836,2.7,9.076,9.076,0,0,1-3.27.549A9.45,9.45,0,0,1,89.74-130a5.078,5.078,0,0,1-2.287-2.355,8.968,8.968,0,0,1-.8-3.911c0-2.721.686-4.688,2.035-5.855A7.876,7.876,0,0,1,93.742-143.6Zm.023,2.424a3.392,3.392,0,0,0-3.042,1.372,6.544,6.544,0,0,0-.709,3.453,6.1,6.1,0,0,0,.892,3.682,3.409,3.409,0,0,0,2.859,1.166,3.3,3.3,0,0,0,2.79-1.166,6.117,6.117,0,0,0,.892-3.659,6.673,6.673,0,0,0-.709-3.43A3.221,3.221,0,0,0,93.765-141.179Zm12.167.229H101.38v-2.561H113.73v2.561H109v11.778h-3.064Zm20.125-2.561v2.561h-3.979a7.744,7.744,0,0,0-2.264.229,2.261,2.261,0,0,0-1.189.823,2.491,2.491,0,0,0-.435.846,9.437,9.437,0,0,0-.183,1.464h8.05v2.561h-8.05a3.5,3.5,0,0,0,1.075,2.584,5.138,5.138,0,0,0,3.133.709h3.842v2.561h-3.979a17.63,17.63,0,0,1-2.859-.206,4.83,4.83,0,0,1-3.064-1.692,8.169,8.169,0,0,1-1.624-5.351,7.481,7.481,0,0,1,2.287-5.832,4.21,4.21,0,0,1,1.692-.96,8.269,8.269,0,0,1,2.378-.3Zm2.241,0h3.042v8.05c.046,1.029.092,1.715.137,2.035a1.593,1.593,0,0,0,.938,1.326,7.231,7.231,0,0,0,2.79.366h2.95v2.561h-3.247a16.19,16.19,0,0,1-3.339-.252,4.166,4.166,0,0,1-3.019-3.019,14.357,14.357,0,0,1-.252-3.019Zm16.832,0h3.042v8.05c.046,1.029.091,1.715.137,2.035a1.594,1.594,0,0,0,.938,1.326,7.31,7.31,0,0,0,2.79.366h2.927v2.561h-3.247a16.5,16.5,0,0,1-3.339-.252,4.136,4.136,0,0,1-3-3.019,12.924,12.924,0,0,1-.252-3.019Zm14.156,0v8.6a5.934,5.934,0,0,0,.16,1.6,2.294,2.294,0,0,0,.572.96,3.45,3.45,0,0,0,2.516.892,4.115,4.115,0,0,0,1.807-.366,1.952,1.952,0,0,0,1.052-.938,5.208,5.208,0,0,0,.3-2.15v-8.6h3.065v8.439a8.626,8.626,0,0,1-.366,2.767,3.865,3.865,0,0,1-1.1,1.761,7.059,7.059,0,0,1-4.8,1.487c-2.218,0-3.842-.5-4.848-1.464a4.471,4.471,0,0,1-1.121-1.692,9.667,9.667,0,0,1-.3-2.63v-8.667Zm12.235,14.339v-14.339h8.1a6.924,6.924,0,0,1,2.79.435,3.287,3.287,0,0,1,1.509,1.669,3.858,3.858,0,0,1,.366,1.669,3.841,3.841,0,0,1-.595,2.081,3.173,3.173,0,0,1-1.486,1.326,3.429,3.429,0,0,1,2.081,3.362,3.93,3.93,0,0,1-.686,2.355,2.83,2.83,0,0,1-1.464,1.121,8.806,8.806,0,0,1-2.7.32Zm3.042-8.439h4.162a4.435,4.435,0,0,0,.938-.069,1.467,1.467,0,0,0,.572-.274,1.684,1.684,0,0,0,.686-1.418,1.358,1.358,0,0,0-.64-1.281,2.77,2.77,0,0,0-1.509-.3h-4.208Zm0,5.878h4.162a4.435,4.435,0,0,0,.938-.069,1.331,1.331,0,0,0,.572-.274,1.656,1.656,0,0,0,.686-1.418,1.455,1.455,0,0,0-.64-1.281,3.041,3.041,0,0,0-1.509-.274h-4.208ZM189.4-143.511v8.6a5.8,5.8,0,0,0,.183,1.6,2.294,2.294,0,0,0,.572.96,3.45,3.45,0,0,0,2.516.892,4.047,4.047,0,0,0,1.807-.366,2.037,2.037,0,0,0,1.052-.938,5.2,5.2,0,0,0,.3-2.15v-8.6h3.042v8.439a8.688,8.688,0,0,1-.343,2.767,4.03,4.03,0,0,1-1.075,1.761,7.164,7.164,0,0,1-4.826,1.487,6.9,6.9,0,0,1-4.848-1.464,3.937,3.937,0,0,1-1.1-1.692,8.718,8.718,0,0,1-.32-2.63v-8.667Zm16.672,0,3.568,11.183,3.751-11.183h4.459v14.339h-2.927v-10.771L211.2-129.172h-3.156l-3.522-10.771v10.771h-2.927v-14.339Zm14.7,14.339v-14.339H228.9a6.876,6.876,0,0,1,2.767.435,3.288,3.288,0,0,1,1.509,1.669,3.883,3.883,0,0,1,.389,1.669,3.869,3.869,0,0,1-.617,2.081,3.07,3.07,0,0,1-1.486,1.326,3.4,3.4,0,0,1,2.081,3.362,4.085,4.085,0,0,1-.663,2.355,2.924,2.924,0,0,1-1.464,1.121,8.91,8.91,0,0,1-2.7.32Zm3.042-8.439h4.162a4.847,4.847,0,0,0,.961-.069,1.466,1.466,0,0,0,.572-.274,1.725,1.725,0,0,0,.663-1.418,1.359,1.359,0,0,0-.64-1.281,2.629,2.629,0,0,0-1.486-.3h-4.231Zm0,5.878h4.162a4.847,4.847,0,0,0,.961-.069,1.469,1.469,0,0,0,.572-.274,1.7,1.7,0,0,0,.663-1.418,1.406,1.406,0,0,0-.64-1.281,2.941,2.941,0,0,0-1.486-.274h-4.231Zm10.291,2.561,5.923-14.339h3.522l5.923,14.339h-3.567l-1.4-3.316h-5.443l-1.395,3.316Zm7.684-10.886-2.035,5.008h4.071Zm9.194,10.886v-2.561h6.54a4.355,4.355,0,0,0,2.1-.32,1.449,1.449,0,0,0,.755-1.349,1.6,1.6,0,0,0-.892-1.509,3.242,3.242,0,0,0-1.6-.274h-2.653a5.564,5.564,0,0,1-3.522-.892,3.961,3.961,0,0,1-1.029-1.4,4.341,4.341,0,0,1-.389-1.807,4.579,4.579,0,0,1,.892-2.744,3.581,3.581,0,0,1,2.744-1.395,13.632,13.632,0,0,1,1.921-.091h7.112v2.561h-6.4a10.712,10.712,0,0,0-1.921.114,1.308,1.308,0,0,0-.96,1.464,1.373,1.373,0,0,0,.8,1.395,4.911,4.911,0,0,0,1.807.229h2.287a8.474,8.474,0,0,1,2.653.32,3.337,3.337,0,0,1,2.081,1.784,5.318,5.318,0,0,1,.457,2.241,4.431,4.431,0,0,1-.595,2.333,3.478,3.478,0,0,1-2.539,1.761,15.76,15.76,0,0,1-2.447.137Zm26.643-14.339v14.339h-3.064v-5.946h-5.534v5.946H265.97v-14.339h3.064v5.854h5.534v-5.854Zm2.9,14.339v-14.339h3.042v14.339Z" transform="translate(-72.863 245.554)" fill="#fff"/>
      <path id="Path_30767" data-name="Path 30767" d="M386.746-400.061h8.69v46.722H344.117v-46.722h9.056c.457-.457.938-.915,1.418-1.349a22.849,22.849,0,0,1,15.6-5.832,23.289,23.289,0,0,1,15.231,5.9C385.877-400.93,386.311-400.5,386.746-400.061Zm4.917,3.819h-6.586l-.572-.64a21.484,21.484,0,0,0-1.6-1.624,19.685,19.685,0,0,0-12.761-4.963,19.146,19.146,0,0,0-13.035,4.894,19.673,19.673,0,0,0-1.692,1.692l-.572.64h-6.929v39.106h43.749Z" transform="translate(-265.15 432.444)" fill="#fff"/>
      <path id="Path_30768" data-name="Path 30768" d="M331.706-480.84a6.608,6.608,0,0,1,3.385,2.333,3.019,3.019,0,0,1,2.927-2.264,2.967,2.967,0,0,1,2.973,2.973,2.986,2.986,0,0,1-2.973,3h-.16a7.8,7.8,0,0,0,2.378,2.241c3.591,1.852,8.873-1.99,6.312-5.969a3.281,3.281,0,0,1-3.087-3.27,3.279,3.279,0,0,1,3.293-3.293,3.1,3.1,0,0,1,1.372.32l.023-.069v.069a3.278,3.278,0,0,1,1.875,2.973,3.172,3.172,0,0,1-.983,2.333c2.493,5.511,9.239,4.6,9.788-1.258l-.16-.846a3.394,3.394,0,0,1-2.058.709,3.294,3.294,0,0,1-3.293-3.293,3.289,3.289,0,0,1,3.293-3.27,2.9,2.9,0,0,1,1.006.16l-.046-.3c-.137-2.767.823-4.94,3.408-6.243a6.054,6.054,0,0,1,3.43,6.243l-.046.3a2.953,2.953,0,0,1,.983-.16,3.275,3.275,0,0,1,3.293,3.27,3.279,3.279,0,0,1-3.293,3.293,3.379,3.379,0,0,1-2.035-.709l-.16.846c.549,5.855,7.295,6.769,9.788,1.258a3.173,3.173,0,0,1-.983-2.333,3.278,3.278,0,0,1,1.875-2.973v-.069l.023.069a3.1,3.1,0,0,1,1.372-.32,3.279,3.279,0,0,1,3.293,3.293,3.265,3.265,0,0,1-3.087,3.27c-2.561,3.979,2.721,7.821,6.312,5.969a8.066,8.066,0,0,0,2.378-2.241h-.137a2.991,2.991,0,0,1-3-3,2.972,2.972,0,0,1,3-2.973,2.947,2.947,0,0,1,2.881,2.264,6.665,6.665,0,0,1,3.408-2.333c-1.281,1.418-2.493,2.859-3.613,4.322a2.915,2.915,0,0,1-.709.961,35.429,35.429,0,0,0-6.106,12.166c-4.734-4-9.582-7.867-18.867-8.027-9.262.16-14.133,4.025-18.844,8.027a35.091,35.091,0,0,0-6.129-12.166,3.278,3.278,0,0,1-.709-.961C334.2-477.981,332.986-479.422,331.706-480.84Z" transform="translate(-256.352 493.807)" fill="#fff"/>
      <path id="Path_30769" data-name="Path 30769" d="M350.873-186.449h47.413v-2.465H350.873Z" transform="translate(-269.939 277.675)" fill="#fff"/>
      <path id="Path_30770" data-name="Path 30770" d="M351.58-209.13h47.191v-5.037H351.58Z" transform="translate(-270.44 295.576)" fill="#fff"/>
      <path id="Path_30771" data-name="Path 30771" d="M528.333-338.051h2.455v-49.336h-2.455Z" transform="translate(-395.737 418.368)" fill="#fff"/>
      <path id="Path_30772" data-name="Path 30772" d="M327.778-338.051h2.456v-49.336h-2.456Z" transform="translate(-253.567 418.368)" fill="#fff"/>
      <path id="Path_30773" data-name="Path 30773" d="M389.116-354.548a3.353,3.353,0,0,1,.64-.961,2.1,2.1,0,0,1,.892-.549,3.894,3.894,0,0,1,1.212-.16q.686,0,1.372.069c.457.046.915.092,1.395.137.457.046.915.069,1.372.091.343-.023.732-.069,1.189-.137.435-.069.915-.183,1.395-.3.48-.16.961-.3,1.441-.5a8.915,8.915,0,0,0,1.326-.572l.046.069a14.116,14.116,0,0,0-1.944,1.189,9.408,9.408,0,0,0-1.486,1.349,8.7,8.7,0,0,0-1.121,1.692A13.293,13.293,0,0,0,396-351c-.343.137-.709.32-1.143.5-.457.206-.915.435-1.372.663a13.949,13.949,0,0,0-1.395.823,10.693,10.693,0,0,0-1.258.96,4.273,4.273,0,0,0-.869,1.1,2.4,2.4,0,0,0-.343,1.235,1.692,1.692,0,0,0,.274.96,1.68,1.68,0,0,0,.732.64,2.52,2.52,0,0,0,1.121.229,5.712,5.712,0,0,0,1.715-.274,8.658,8.658,0,0,0,1.647-.732,9.492,9.492,0,0,0,1.509-1.166,8.126,8.126,0,0,0,1.189-1.464,10.728,10.728,0,0,0,.686-1.235c.206-.435.412-.892.595-1.395.183-.48.366-1.029.549-1.624.206-.069.366-.137.526-.183.16-.069.275-.114.412-.16.114-.046.252-.091.389-.16.137-.046.3-.092.457-.16l-.092.3-.869,2.081c-.16.412-.343.846-.48,1.28a8.83,8.83,0,0,0-.389,1.327,5.263,5.263,0,0,0-.16,1.326,2.2,2.2,0,0,0,.274,1.166,1.977,1.977,0,0,0,.732.709,3.782,3.782,0,0,0,1.052.343,5.847,5.847,0,0,0,1.121.092,7.862,7.862,0,0,0,2.744-.457,7.6,7.6,0,0,0,2.47-1.372A7.3,7.3,0,0,0,409.241-347a5.861,5.861,0,0,0,.892-1.464,4.429,4.429,0,0,0,.3-1.51,2.6,2.6,0,0,0-.458-1.555,3.991,3.991,0,0,0-1.464-1.212l-.275.3a2.147,2.147,0,0,1,.755.823,2.623,2.623,0,0,1,.252,1.143,4.165,4.165,0,0,1-.229,1.235,6.724,6.724,0,0,1-.617,1.3,7.362,7.362,0,0,1-.937,1.281,8.308,8.308,0,0,1-1.1,1.1,5.984,5.984,0,0,1-1.235.755,3.484,3.484,0,0,1-1.235.3,1.155,1.155,0,0,1-.823-.366,1.557,1.557,0,0,1-.3-.915,8.7,8.7,0,0,1,.183-1.395c.114-.526.3-1.1.48-1.692s.412-1.189.64-1.761c.229-.595.457-1.166.663-1.67.229-.526.412-.96.594-1.326a15.694,15.694,0,0,0,3.819-1.944,2.429,2.429,0,0,0,1.258-1.852,1.17,1.17,0,0,0-.183-.64,1.34,1.34,0,0,0-.5-.435,1.444,1.444,0,0,0-.732-.16,3.9,3.9,0,0,0-.983.137,5.247,5.247,0,0,0-1.121.343,7.251,7.251,0,0,0-1.121.549,8.05,8.05,0,0,0-1.029.686,10.285,10.285,0,0,0-1.166,1.075,11.328,11.328,0,0,0-.961,1.258,15.93,15.93,0,0,0-.869,1.532c-.206.091-.389.137-.549.206-.137.069-.3.114-.411.16-.137.046-.3.092-.435.137-.16.069-.343.137-.526.206.069-.275.16-.618.275-1.006.137-.412.251-.8.412-1.258.16-.435.343-.846.526-1.258a6.254,6.254,0,0,1,.617-1.1,2.126,2.126,0,0,1,.663-.686l-.252-.32a6.235,6.235,0,0,1-.732.16,2.509,2.509,0,0,1-.594.046,5.57,5.57,0,0,1-1.349-.16c-.458-.091-.938-.229-1.418-.366-.5-.137-.983-.274-1.487-.366a6.976,6.976,0,0,0-1.532-.16,7.265,7.265,0,0,0-2.767.5,6.505,6.505,0,0,0-2.173,1.464,6.382,6.382,0,0,0-1.349,2.287Zm6.609,4.3c-.091.3-.206.663-.366,1.052a13.579,13.579,0,0,1-.526,1.258,13.782,13.782,0,0,1-.686,1.281,5.9,5.9,0,0,1-.823,1.12,3.526,3.526,0,0,1-.938.823,2.008,2.008,0,0,1-1.075.3.863.863,0,0,1-.617-.229.861.861,0,0,1-.229-.549,1.767,1.767,0,0,1,.32-.892,6.668,6.668,0,0,1,.755-.983c.343-.32.686-.64,1.1-.96q.583-.48,1.166-.892c.388-.275.755-.549,1.1-.755C395.245-349.905,395.52-350.088,395.726-350.248Zm9.948-4.117c.137-.229.3-.5.526-.823.183-.32.435-.64.686-1.006a11.089,11.089,0,0,1,.8-.96,4.731,4.731,0,0,1,.823-.732,1.376,1.376,0,0,1,.755-.3.383.383,0,0,1,.32.137.326.326,0,0,1,.137.274,1.476,1.476,0,0,1-.412.892,8.885,8.885,0,0,1-1.3,1.121c-.274.183-.549.389-.8.526a6.649,6.649,0,0,1-.755.457C406.223-354.639,405.948-354.5,405.674-354.365Z" transform="translate(-296.725 398.137)" fill="#fff"/>
      <path id="Path_30774" data-name="Path 30774" d="M431.93-316.511a9.753,9.753,0,0,0,2.264-1.692,9.42,9.42,0,0,0,1.647-2.081,7.268,7.268,0,0,0,.846-2.241,4.843,4.843,0,0,0-.069-2.15,3.2,3.2,0,0,0-.755-1.441,2.671,2.671,0,0,0-1.212-.732,3.426,3.426,0,0,0-1.578.091,5.487,5.487,0,0,0-1.532.709,6.892,6.892,0,0,0-1.4,1.212A8.878,8.878,0,0,0,429-323.212a7.1,7.1,0,0,0-.709,1.761,6.425,6.425,0,0,0-.3,1.715,11.326,11.326,0,0,0,.023,1.761c.046.572.092,1.166.183,1.761.068.617.16,1.212.206,1.875l-1.189.252a10.132,10.132,0,0,0-1.944.8,8.421,8.421,0,0,0-1.464,1.1,3.881,3.881,0,0,0-.823,1.235,1.853,1.853,0,0,0-.092,1.258,1.127,1.127,0,0,0,.732.8,1.941,1.941,0,0,0,1.349,0,4.721,4.721,0,0,0,1.258-.526,4.686,4.686,0,0,0,1.143-.892,11.153,11.153,0,0,0,1.166-1.3c.389.023.823.046,1.326.068s1.052.023,1.624,0c.549,0,1.12,0,1.669-.046q.824-.034,1.578-.137A8.3,8.3,0,0,0,436-311.96a4.12,4.12,0,0,0,1.189-.595,9.7,9.7,0,0,0,1.212-1.052,16.235,16.235,0,0,0,1.212-1.487l-.274-.251a5.317,5.317,0,0,1-.458.366,1.866,1.866,0,0,1-.389.252,1.736,1.736,0,0,1-.366.137,4.3,4.3,0,0,1-.983.114,8.528,8.528,0,0,1-1.075-.091c-.343-.046-.686-.092-1.006-.114-.8-.046-1.6-.092-2.424-.092a17.369,17.369,0,0,0-2.447.16,8.828,8.828,0,0,0,.8-1.715,7.188,7.188,0,0,0,.366-1.624,9.284,9.284,0,0,0,.091-1.578c0-.5,0-1.006-.023-1.487-.023-.5-.023-.983-.023-1.441a7.032,7.032,0,0,1,.137-1.395,5.017,5.017,0,0,1,.48-1.349,2.723,2.723,0,0,1,.366-.526,2.7,2.7,0,0,1,.48-.412,1.839,1.839,0,0,1,.526-.252,1.25,1.25,0,0,1,1.075.137,1.516,1.516,0,0,1,.64.938,4.361,4.361,0,0,1,.16,1.281,8.868,8.868,0,0,1-.114,1.51,13.73,13.73,0,0,1-.412,1.6,7.287,7.287,0,0,1-.64,1.509,6.4,6.4,0,0,1-.686,1.1,4.418,4.418,0,0,1-.8.8,5.8,5.8,0,0,1-1.052.617ZM427.9-311.5a5.053,5.053,0,0,1-1.3,1.212,6.7,6.7,0,0,1-1.829.8,3,3,0,0,1-.984.137c-.251-.046-.389-.137-.434-.343-.069-.229.046-.48.343-.686a5.336,5.336,0,0,1,1.487-.594c.3-.092.617-.183.938-.252s.64-.114.938-.16A5.757,5.757,0,0,1,427.9-311.5Z" transform="translate(-320.946 375.491)" fill="#fff"/>
      <path id="Path_30775" data-name="Path 30775" d="M453.6-330.783a7.292,7.292,0,0,0,1.418-1.349,5.863,5.863,0,0,0,.892-1.464,4.434,4.434,0,0,0,.3-1.51,2.594,2.594,0,0,0-.457-1.555,3.99,3.99,0,0,0-1.464-1.212l-.275.3a2.148,2.148,0,0,1,.755.823,2.625,2.625,0,0,1,.252,1.143,4.167,4.167,0,0,1-.229,1.235,4.516,4.516,0,0,1-.617,1.3l-.938,1.281Z" transform="translate(-342.499 383.268)" fill="#fff"/>
    </g>
  </g>
</svg>
