<svg xmlns="http://www.w3.org/2000/svg" width="35.446" height="23.539" viewBox="0 0 35.446 23.539">
  <g id="_2668966" data-name="2668966" transform="translate(0 -86)">
    <g id="Group_2714" data-name="Group 2714" transform="translate(0 86)">
      <path id="Path_585" data-name="Path 585" d="M35.446,88.423A2.426,2.426,0,0,0,33.023,86h-21.6a.692.692,0,1,0,0,1.385h21.6a1.038,1.038,0,1,1,0,2.077H2.423a1.038,1.038,0,0,1,0-2.077H5.192a.692.692,0,1,0,0-1.385H2.423a2.423,2.423,0,0,0-.186,4.838l-.85,16.467a2.1,2.1,0,0,0,1.89,2.225q.091.008.181.008a2.1,2.1,0,0,0,2.066-1.871L7.261,93.616H28.185l1.737,14.052a2.1,2.1,0,0,0,2.066,1.871c.06,0,.12,0,.181-.008a2.1,2.1,0,0,0,1.89-2.225l-.85-16.467A2.426,2.426,0,0,0,35.446,88.423ZM4.151,107.5a.716.716,0,0,1-.753.654.716.716,0,0,1-.628-.775l.853-16.531H6.208ZM7.433,92.231,7.6,90.846H27.843l.171,1.385Zm24.616,15.92a.716.716,0,0,1-.753-.654L29.238,90.846h2.585l.853,16.53A.717.717,0,0,1,32.048,108.151Z" transform="translate(0 -86)" fill="#569040"/>
      <path id="Path_586" data-name="Path 586" d="M110.694,87.385a.692.692,0,1,0,0-1.385h0a.692.692,0,1,0,0,1.385Z" transform="translate(-102.386 -86)" fill="#569040"/>
    </g>
  </g>
</svg>
