<svg xmlns="http://www.w3.org/2000/svg" width="21.602" height="25.152" viewBox="0 0 21.602 25.152">
  <path id="timesheet" d="M15.942,13.828a5.662,5.662,0,1,1-4.006,1.658,5.662,5.662,0,0,1,4.006-1.658Zm2.231,7.04a.628.628,0,0,0,.108-.014.442.442,0,0,0,.1-.033.627.627,0,0,0,.391-.555v-.043a.628.628,0,0,0-.475-.6.78.78,0,0,0-.121-.016h0c-.237,0-1.482-.02-1.738-.035l-.219-.012.07-2.106a.8.8,0,0,0,0-.121.733.733,0,0,0-.033-.115.6.6,0,0,0-.055-.108.68.68,0,0,0-.076-.1h0a.841.841,0,0,0-.092-.078.53.53,0,0,0-.106-.059.755.755,0,0,0-.115-.039.7.7,0,0,0-.117-.014h-.02a.614.614,0,0,0-.231.043.667.667,0,0,0-.2.129l-.014.014a.946.946,0,0,0-.07.084,1,1,0,0,0-.057.1.63.63,0,0,0-.051.233l-.108,2.712a.78.78,0,0,0,0,.121.581.581,0,0,0,.033.117.485.485,0,0,0,.053.108.559.559,0,0,0,.072.1h0a.471.471,0,0,0,.084.074h0a.9.9,0,0,0,.1.055.669.669,0,0,0,.113.041h0a.747.747,0,0,0,.113.016h0c.192,0,.393.023.6.037.352.025,1.7.049,2.022.041Zm.141-9.1v.719a7.392,7.392,0,0,0-1.324-.309v-.409h0V7.4H11.445a.669.669,0,0,1-.669-.669V1.326H1.335V21.494H8.829v.018h0v.066h0V21.6h0v.016h0v.043h0v.014h0v.018h0V21.7h0v.031l.012.035h0v.018h0V21.8h0l.016.053h0v.016h0v.014h0V21.9h0v.014h0l.014.037h0v.012h0v.02h0l.012.035h0v.014c.025.063.049.127.076.19h0l.035.082h0l.035.082h0l.045.1h0c.037.082.076.162.115.242h-8a1.2,1.2,0,0,1-.843-.35A1.179,1.179,0,0,1,0,21.629V1.193A1.2,1.2,0,0,1,1.193,0H11.445a.659.659,0,0,1,.514.244l5.875,5.732a.663.663,0,0,1,.483.641v5.152Zm-6.2-9.435L16.1,6.071H12.11Zm-8.249,8.96A.475.475,0,0,1,4.2,11.13h7.838a.471.471,0,0,1,.354.162.575.575,0,0,1,0,.753h0a.475.475,0,0,1-.352.164H4.213a.473.473,0,0,1-.354-.162.575.575,0,0,1,0-.757Zm0-3.545a.473.473,0,0,1,.352-.162H8.845a.477.477,0,0,1,.35.156h0a.577.577,0,0,1,0,.759.475.475,0,0,1-.352.164H4.213A.473.473,0,0,1,3.859,8.5a.577.577,0,0,1,0-.759Zm5.707,8.014H4.219a.475.475,0,0,1-.356-.162.571.571,0,0,1-.139-.381.559.559,0,0,1,.141-.377.479.479,0,0,1,.354-.164h6.123a7.369,7.369,0,0,0-.774,1.083Zm-5.7,2.618a.479.479,0,0,1,.354-.164H8.665A7.242,7.242,0,0,0,8.559,19.3H4.219a.475.475,0,0,1-.356-.162.569.569,0,0,1-.139-.379.561.561,0,0,1,.141-.379Zm15.353-2.158A4.618,4.618,0,1,0,20.572,19.5a4.618,4.618,0,0,0-1.355-3.275Z" fill="rgba(0,0,0,0.5)"/>
</svg>
