<svg xmlns="http://www.w3.org/2000/svg" width="32.929" height="32.941" viewBox="0 0 32.929 32.941">
  <g id="_883809" data-name="883809" transform="translate(-0.091 0)">
    <g id="Group_12933" data-name="Group 12933" transform="translate(12.054 25.031)">
      <g id="Group_12932" data-name="Group 12932">
        <path id="Path_623" data-name="Path 623" d="M186.669,389.044a.643.643,0,1,0,.643.643A.643.643,0,0,0,186.669,389.044Z" transform="translate(-186.026 -389.044)" fill="#569040"/>
      </g>
    </g>
    <g id="Group_12935" data-name="Group 12935" transform="translate(0.091 0)">
      <g id="Group_12934" data-name="Group 12934" transform="translate(0 0)">
        <path id="Path_624" data-name="Path 624" d="M29.8,12.466a3.2,3.2,0,0,0-2.876-1.777H24.4A28.451,28.451,0,0,0,26.2.97.643.643,0,0,0,25.86.4a3.327,3.327,0,0,0-3.917.573,2.089,2.089,0,0,1-2.992,0,3.371,3.371,0,0,0-4.726,0,2.089,2.089,0,0,1-2.992,0,3.356,3.356,0,0,0-4-.53.643.643,0,0,0-.329.565,28.469,28.469,0,0,0,1.8,9.682H6.183a3.2,3.2,0,0,0-2.876,1.778C.255,18.7.091,18.694.091,19.049V29.726a3.219,3.219,0,0,0,3.216,3.216H29.8a3.219,3.219,0,0,0,3.216-3.216V19.049C33.02,18.689,32.841,18.67,29.8,12.466ZM8.2,1.409a2.075,2.075,0,0,1,2.165.513,3.371,3.371,0,0,0,4.726,0,2.089,2.089,0,0,1,2.992,0,3.371,3.371,0,0,0,4.726,0,2.089,2.089,0,0,1,2.1-.535,26.832,26.832,0,0,1-2.042,9.652,14.863,14.863,0,0,1-2.039,3.508H19.724a35.807,35.807,0,0,0,2.61-5.568.643.643,0,1,0-1.209-.44,33.046,33.046,0,0,1-2.909,6.009H17.2V8.759a.643.643,0,1,0-1.286,0v5.788H14.9a32.958,32.958,0,0,1-2.908-6.008.643.643,0,0,0-1.209.44,35.7,35.7,0,0,0,2.608,5.568H12.282a14.866,14.866,0,0,1-2.038-3.508A26.849,26.849,0,0,1,8.2,1.409ZM4.457,13.041a1.919,1.919,0,0,1,1.726-1.067H9.251a17.218,17.218,0,0,0,1.428,2.573H8.838a.643.643,0,1,0,0,1.286H24.274a.643.643,0,0,0,0-1.286h-1.84a17.208,17.208,0,0,0,1.428-2.573h3.067a1.919,1.919,0,0,1,1.726,1.066l2.682,5.365H1.775ZM31.734,29.726A1.932,1.932,0,0,1,29.8,31.655H3.307a1.932,1.932,0,0,1-1.929-1.929V19.692H31.734V29.726Z" transform="translate(-0.091 0)" fill="#569040"/>
      </g>
    </g>
    <g id="Group_12937" data-name="Group 12937" transform="translate(9.481 22.458)">
      <g id="Group_12936" data-name="Group 12936">
        <path id="Path_625" data-name="Path 625" d="M159.544,349.058H146.681a.643.643,0,0,0-.643.643v5.145a.643.643,0,0,0,.643.643h12.863a.643.643,0,0,0,.643-.643V349.7A.643.643,0,0,0,159.544,349.058ZM158.9,354.2H147.324v-3.859H158.9Z" transform="translate(-146.038 -349.058)" fill="#569040"/>
      </g>
    </g>
    <g id="Group_12939" data-name="Group 12939" transform="translate(14.626 25.031)">
      <g id="Group_12938" data-name="Group 12938">
        <path id="Path_626" data-name="Path 626" d="M231.8,389.044h-5.145a.643.643,0,0,0,0,1.286H231.8a.643.643,0,0,0,0-1.286Z" transform="translate(-226.011 -389.044)" fill="#569040"/>
      </g>
    </g>
  </g>
</svg>
