<svg xmlns="http://www.w3.org/2000/svg" width="23.024" height="35.686" viewBox="0 0 23.024 35.686">
  <g id="_893991" data-name="893991" transform="translate(-88)">
    <g id="Group_12941" data-name="Group 12941" transform="translate(88)">
      <path id="Path_627" data-name="Path 627" d="M106.895,17.268l-.476-10.943V4.6a1.152,1.152,0,0,0-1.151-1.151h-.576V0h-4.6V3.454h-.576A1.152,1.152,0,0,0,98.361,4.6v1.72l-.476,10.943h-2.4V15.994l-2.248-5.058h3.4V.576H93.18V0H89.727V11.058l2.3,5.18v1.029H88v1.151h1.223l2.3,17.268H107.5l2.3-17.268h1.222V17.268ZM92.029,30.754,90.384,18.419h1.645ZM104.116,4.6h1.151V5.756h-1.151Zm-2.878-3.454h2.3v2.3h-2.3ZM102.965,4.6V5.756h-1.151V4.6Zm-3.454,0h1.151V5.756H99.512Zm-.025,2.3h5.805l.45,10.361H99.037ZM98.436,31.082h5.68V29.931h-5.63l.5-11.512h6.806l.5,11.512h-1.026v1.151h1.076l.05,1.151H98.386ZM95.483,18.419h2.352l-.6,13.814H95.483ZM93.18,1.727h2.3V2.878h-2.3Zm0,2.3h2.3V5.18h-2.3Zm0,2.3h2.3V7.483h-2.3Zm0,2.3h2.3V9.785h-2.3Zm-2.3,2.18V1.151h1.151v9.907l2.3,5.18v1.029H93.18V15.994Zm3.454,7.6V32.233H93.18V18.419ZM106.49,34.535H92.533l-.154-1.151h14.264ZM107.362,28l-.417-9.583h1.695Z" transform="translate(-88)" fill="#569040"/>
    </g>
  </g>
</svg>
