<svg xmlns="http://www.w3.org/2000/svg" width="85.614" height="31.997" viewBox="0 0 85.614 31.997">
  <g id="_2736918" data-name="2736918" transform="translate(0 -160.323)">
    <path id="Path_526" data-name="Path 526" d="M91.779,295.333a1.25,1.25,0,0,0,.887-.367l1.9-1.9a1.254,1.254,0,0,0-1.773-1.773l-1.9,1.9a1.254,1.254,0,0,0,.887,2.141Z" transform="translate(-75.388 -108.767)" fill="#569040"/>
    <path id="Path_527" data-name="Path 527" d="M405.418,294.965a1.254,1.254,0,0,0,1.773-1.773l-1.9-1.9a1.254,1.254,0,1,0-1.773,1.773Z" transform="translate(-335.742 -108.766)" fill="#569040"/>
    <path id="Path_528" data-name="Path 528" d="M81.832,173.343c-7.083-3.289-17.738-3.6-19.889-3.634l-10.16-6.466a18.649,18.649,0,0,0-10.029-2.92H29.812a20.122,20.122,0,0,0-8.953,2.114L14.5,165.617A18.8,18.8,0,0,1,8.4,167.462l-4.958.62A3.941,3.941,0,0,0,0,171.986v8a5.3,5.3,0,0,0,3.826,5.072l5.925,1.693a7.953,7.953,0,0,0,14.5,1.543H62.7a7.963,7.963,0,1,0-.915-2.508H25.164a7.955,7.955,0,1,0-15.774-1.747l-4.876-1.393a2.778,2.778,0,0,1-2.007-2.66v-3.755H3.935a1.254,1.254,0,1,0,0-2.508H2.508v-1.741a1.429,1.429,0,0,1,1.25-1.416l4.958-.62a21.308,21.308,0,0,0,6.9-2.09l.572-.286,2.32,2.309a7.9,7.9,0,0,0,5.626,2.33h2.585a1.254,1.254,0,1,0,0-2.508H24.137a5.517,5.517,0,0,1-.65-.04l1.386-6.121a17.579,17.579,0,0,1,4.94-.714h6.38v6.875H32.084a1.254,1.254,0,1,0,0,2.508H61.573c.119,0,11.967.043,19.2,3.4a3.941,3.941,0,0,1,1.126.79H80.339a1.254,1.254,0,1,0,0,2.508h2.744c.014.136.023.272.023.411v4.45c0,1.242-.547,2.014-1.427,2.014a1.254,1.254,0,1,0,0,2.508,3.712,3.712,0,0,0,2.842-1.287,4.837,4.837,0,0,0,1.093-3.235v-4.45a6.6,6.6,0,0,0-3.782-5.984Zm-12.217,5.573a5.448,5.448,0,1,1-5.448,5.448A5.454,5.454,0,0,1,69.615,178.916Zm-52.276,0a5.448,5.448,0,1,1-5.448,5.448,5.454,5.454,0,0,1,5.448-5.448Zm3.773-10.125a5.5,5.5,0,0,1-.828-.681l-1.721-1.721,3.418-1.709.071-.034Zm17.587-5.96h3.055a16.146,16.146,0,0,1,8.682,2.528l6.83,4.347H38.7Z" fill="#569040"/>
    <path id="Path_529" data-name="Path 529" d="M169.593,280.564a1.254,1.254,0,1,0,0,2.508h28.149a1.254,1.254,0,0,0,0-2.508Z" transform="translate(-140.19 -100.135)" fill="#569040"/>
  </g>
</svg>
