<svg xmlns="http://www.w3.org/2000/svg" width="32.061" height="29.055" viewBox="0 0 32.061 29.055">
  <path id="_2162958" data-name="2162958" d="M29.869,24H2.192A2.194,2.194,0,0,0,0,26.19V44.3a2.194,2.194,0,0,0,2.192,2.192H15.122v2.482L4.689,51.195a.939.939,0,1,0,.391,1.837L9.4,52.114,16.044,50.7l6.744,1.414,4.384.919a.939.939,0,1,0,.385-1.839L17,48.981V46.493H29.869A2.194,2.194,0,0,0,32.061,44.3V26.19A2.194,2.194,0,0,0,29.869,24Zm0,20.617H2.192a.313.313,0,0,1-.313-.313V42.374h28.3V44.3A.313.313,0,0,1,29.869,44.615ZM1.879,40.5V26.19a.313.313,0,0,1,.313-.313H29.869a.313.313,0,0,1,.313.313V40.5Z" transform="translate(0 -23.998)" fill="#569040"/>
</svg>
