<svg xmlns="http://www.w3.org/2000/svg" width="22.236" height="24.727" viewBox="0 0 22.236 24.727">
  <g id="User" transform="translate(-3.007 -1.5)" opacity="0.5">
    <g id="user_1_" data-name="user (1)" transform="translate(3.007 1.5)">
      <g id="Path" transform="translate(4.67 0)" fill="none">
        <path d="M6.45,0A6.42,6.42,0,1,0,12.9,6.42,6.452,6.452,0,0,0,6.45,0Z" stroke="none"/>
        <path d="M 6.449606895446777 1.000000953674316 C 3.444677352905273 1.000000953674316 0.9999971389770508 3.431430816650391 0.9999971389770508 6.420071125030518 C 0.9999971389770508 9.408711433410645 3.444677352905273 11.84014129638672 6.449606895446777 11.84014129638672 C 9.454536437988281 11.84014129638672 11.8992166519165 9.408711433410645 11.8992166519165 6.420071125030518 C 11.8992166519165 3.431430816650391 9.454536437988281 1.000000953674316 6.449606895446777 1.000000953674316 M 6.449606895446777 9.5367431640625e-07 C 9.998316764831543 9.5367431640625e-07 12.8992166519165 2.887611389160156 12.8992166519165 6.420071125030518 C 12.8992166519165 9.952530860900879 9.998316764831543 12.84014129638672 6.449606895446777 12.84014129638672 C 2.900897026062012 12.84014129638672 -2.86102294921875e-06 9.952530860900879 -2.86102294921875e-06 6.420071125030518 C -2.86102294921875e-06 2.887611389160156 2.900897026062012 9.5367431640625e-07 6.449606895446777 9.5367431640625e-07 Z" stroke="none" fill="#000"/>
      </g>
      <g id="Path-2" data-name="Path" transform="translate(0 13.299)" fill="none">
        <path d="M22.188,4.671a5.977,5.977,0,0,0-.648-1.177A8.021,8.021,0,0,0,15.992.017a1.191,1.191,0,0,0-.817.2A6.806,6.806,0,0,1,11.12,1.531,6.806,6.806,0,0,1,7.064.214a1.06,1.06,0,0,0-.817-.2A7.963,7.963,0,0,0,.7,3.494,6.891,6.891,0,0,0,.051,4.671.594.594,0,0,0,.079,5.2,11.182,11.182,0,0,0,.84,6.325a10.67,10.67,0,0,0,1.3,1.458A16.859,16.859,0,0,0,3.431,8.9a12.8,12.8,0,0,0,7.661,2.523A12.8,12.8,0,0,0,18.752,8.9a12.367,12.367,0,0,0,1.3-1.121,12.965,12.965,0,0,0,1.3-1.458A9.827,9.827,0,0,0,22.1,5.2.477.477,0,0,0,22.188,4.671Z" stroke="none"/>
        <path d="M 6.429952621459961 1.000527381896973 L 6.382699966430664 1.008066177368164 C 4.403678894042969 1.278936386108398 2.635499954223633 2.386696815490723 1.531539916992188 4.047306537628174 L 1.519750595092773 4.064636707305908 C 1.35308837890625 4.304293632507324 1.190444946289062 4.589476108551025 1.052270889282227 4.882952690124512 C 1.248048782348633 5.198347091674805 1.47465705871582 5.506401538848877 1.638229370117188 5.723486423492432 L 1.643360137939453 5.7303466796875 C 2.003610610961914 6.217056751251221 2.388099670410156 6.649796485900879 2.818819046020508 7.053296566009521 L 2.840639114379883 7.074366569519043 C 3.194259643554688 7.426366806030273 3.606599807739258 7.760647296905518 4.043327331542969 8.113834381103516 C 6.086549758911133 9.627554893493652 8.523326873779297 10.42764663696289 11.09136962890625 10.42764663696289 C 13.66609001159668 10.42764663696289 16.10879898071289 9.62343692779541 18.15379905700684 8.103166580200195 C 18.55854034423828 7.801016807556152 18.96945953369141 7.445246696472168 19.34210968017578 7.074356555938721 C 19.72229957580566 6.695916652679443 20.1618595123291 6.240276336669922 20.53944969177246 5.730266571044922 L 20.55185890197754 5.713846683502197 C 20.79806327819824 5.395212173461914 20.99543762207031 5.110058307647705 21.16544914245605 4.826767444610596 C 21.04830169677734 4.577359199523926 20.90114974975586 4.326171398162842 20.71926879882812 4.064636707305908 L 20.71315956115723 4.055756568908691 C 19.58297157287598 2.392690658569336 17.82239151000977 1.284069061279297 15.87967872619629 1.011305809020996 C 15.87082481384277 1.010723114013672 15.86192893981934 1.01042652130127 15.85309982299805 1.01042652130127 C 15.80722618103027 1.01042652130127 15.77540111541748 1.018269538879395 15.76285552978516 1.022660255432129 C 14.41763114929199 2.009559631347656 12.81210803985596 2.531196594238281 11.11950969696045 2.531196594238281 C 9.425049781799316 2.531196594238281 7.817890167236328 2.00843620300293 6.471759796142578 1.019426345825195 L 6.465629577636719 1.014876365661621 C 6.457791328430176 1.009032249450684 6.441100120544434 1.002468109130859 6.429952621459961 1.000527381896973 M 6.426115989685059 9.5367431640625e-07 C 6.654358863830566 9.5367431640625e-07 6.885560989379883 0.08044338226318359 7.063849449157715 0.2135467529296875 C 8.246749877929688 1.082636833190918 9.654939651489258 1.531196594238281 11.11950969696045 1.531196594238281 C 12.58407974243164 1.531196594238281 13.99226951599121 1.082636833190918 15.17516899108887 0.2135467529296875 C 15.40050983428955 0.04531574249267578 15.7103099822998 -0.01070880889892578 15.99193000793457 0.01730632781982422 C 18.24506950378418 0.3256969451904297 20.24468040466309 1.58726692199707 21.54024887084961 3.493686676025391 C 21.79372024536133 3.858156681060791 22.01901054382324 4.250626564025879 22.18800926208496 4.671176433563232 C 22.27248001098633 4.839346408843994 22.24433898925781 5.035636425018311 22.10359001159668 5.203866481781006 C 21.87830924987793 5.596346378326416 21.62477874755859 5.960806369781494 21.34315872192383 6.325276374816895 C 20.94882965087891 6.857916355133057 20.49820899963379 7.334536552429199 20.0475902557373 7.783086776733398 C 19.65324974060059 8.175566673278809 19.20264053344727 8.568096160888672 18.75201988220215 8.904496192932129 C 16.52706909179688 10.55854606628418 13.85145950317383 11.42764663696289 11.09136962890625 11.42764663696289 C 8.331279754638672 11.42764663696289 5.655660629272461 10.55860614776611 3.430719375610352 8.904496192932129 C 2.980049133300781 8.540036201477051 2.529430389404297 8.175566673278809 2.135149002075195 7.783086776733398 C 1.656339645385742 7.334536552429199 1.233860015869141 6.857966423034668 0.8395805358886719 6.325276374816895 C 0.5860996246337891 5.988876342773438 0.3044891357421875 5.596346378326416 0.07914924621582031 5.203866481781006 C -0.005319595336914062 5.035636425018311 -0.03346061706542969 4.839396476745605 0.0510101318359375 4.671176433563232 C 0.2199592590332031 4.278696537017822 0.4452991485595703 3.858156681060791 0.6987705230712891 3.493686676025391 C 1.966150283813477 1.58726692199707 3.993949890136719 0.3256969451904297 6.247089385986328 0.01730632781982422 C 6.305891990661621 0.005597114562988281 6.365880966186523 9.5367431640625e-07 6.426115989685059 9.5367431640625e-07 Z" stroke="none" fill="#000"/>
      </g>
    </g>
  </g>
</svg>
