<svg xmlns="http://www.w3.org/2000/svg" width="37.906" height="29.202" viewBox="0 0 37.906 29.202">
  <g id="_3481172" data-name="3481172" transform="translate(-2 -10.037)">
    <path id="Path_599" data-name="Path 599" d="M37.77,57.847H21.742a.542.542,0,1,1,0-1.083H37.77a.542.542,0,1,1,0,1.083Z" transform="translate(-8.803 -21.424)" fill="#569040"/>
    <path id="Path_600" data-name="Path 600" d="M38.282,42.442H34.6a.542.542,0,1,1,0-1.083h3.682a.542.542,0,0,0,.542-.542V35.164a1.853,1.853,0,0,0-1.185-1.72l-2.112-.806a.542.542,0,0,1-.213-.148L28.4,24.632a1.132,1.132,0,0,0-.85-.384H3.625a.542.542,0,0,0-.542.542V40.817a.542.542,0,0,0,.542.542H7.307a.542.542,0,0,1,0,1.083H3.625A1.625,1.625,0,0,1,2,40.817V24.789a1.625,1.625,0,0,1,1.625-1.625h23.93a2.22,2.22,0,0,1,1.663.752l6.823,7.757,1.987.758a2.942,2.942,0,0,1,1.879,2.733v5.653a1.625,1.625,0,0,1-1.625,1.625Z" transform="translate(0 -6.019)" fill="#569040"/>
    <path id="Path_601" data-name="Path 601" d="M54.157,58.278a3.357,3.357,0,1,1,3.357-3.357A3.357,3.357,0,0,1,54.157,58.278Zm0-5.632a2.274,2.274,0,1,0,2.274,2.274,2.274,2.274,0,0,0-2.274-2.274Z" transform="translate(-22.374 -19.039)" fill="#569040"/>
    <path id="Path_602" data-name="Path 602" d="M14.157,58.278a3.357,3.357,0,1,1,3.357-3.357A3.357,3.357,0,0,1,14.157,58.278Zm0-5.632a2.274,2.274,0,1,0,2.274,2.274,2.274,2.274,0,0,0-2.274-2.274Z" transform="translate(-4.035 -19.039)" fill="#569040"/>
    <path id="Path_603" data-name="Path 603" d="M50.844,34.644H42.933a.542.542,0,0,1-.542-.542V28a.542.542,0,0,1,.542-.542h2.614a.542.542,0,0,1,.409.187l5.3,6.1a.542.542,0,0,1-.409.9Zm-7.369-1.083h6.182L45.3,28.546H43.474Z" transform="translate(-18.519 -7.99)" fill="#569040"/>
    <path id="Path_604" data-name="Path 604" d="M18.964,37.877H16.371a.542.542,0,0,1-.542-.542V35.508H14a.542.542,0,0,1-.542-.542V32.375A.542.542,0,0,1,14,31.833H15.83V30a.542.542,0,0,1,.542-.542h2.593a.542.542,0,0,1,.542.542v1.829h1.828a.542.542,0,0,1,.542.542v2.592a.542.542,0,0,1-.542.542H19.505v1.827A.542.542,0,0,1,18.964,37.877Zm-2.051-1.083h1.51V34.967a.542.542,0,0,1,.542-.542h1.828V32.916H18.964a.542.542,0,0,1-.542-.542V30.546h-1.51v1.829a.542.542,0,0,1-.542.542H14.543v1.509h1.828a.542.542,0,0,1,.542.542Z" transform="translate(-5.254 -8.907)" fill="#569040"/>
    <path id="Path_605" data-name="Path 605" d="M40.079,21.052H35.1a.542.542,0,0,1-.542-.542V19.461a3.029,3.029,0,0,1,6.058,0V20.51A.542.542,0,0,1,40.079,21.052Zm-4.434-1.083h3.892v-.507a1.946,1.946,0,1,0-3.892,0Z" transform="translate(-14.929 -2.932)" fill="#569040"/>
    <path id="Path_606" data-name="Path 606" d="M39.7,11.936a.542.542,0,0,1-.542-.542v-.816a.542.542,0,1,1,1.083,0v.816A.542.542,0,0,1,39.7,11.936Z" transform="translate(-17.035)" fill="#569040"/>
    <path id="Path_607" data-name="Path 607" d="M45.219,14.085a.542.542,0,0,1-.433-.87l.531-.7a.542.542,0,0,1,.862.656l-.529.7A.542.542,0,0,1,45.219,14.085Z" transform="translate(-19.566 -1.039)" fill="#569040"/>
    <path id="Path_608" data-name="Path 608" d="M33.723,14.085a.542.542,0,0,1-.433-.213l-.532-.7a.542.542,0,1,1,.864-.655l.532.7a.542.542,0,0,1-.431.87Z" transform="translate(-14.051 -1.039)" fill="#569040"/>
    <path id="Path_609" data-name="Path 609" d="M48.341,18.637a.542.542,0,0,1-.1-1.073l.97-.187a.542.542,0,1,1,.205,1.064l-.97.19A.513.513,0,0,1,48.341,18.637Z" transform="translate(-20.999 -3.361)" fill="#569040"/>
    <path id="Path_610" data-name="Path 610" d="M30.232,18.637a.518.518,0,0,1-.1-.01l-.97-.187a.542.542,0,1,1,.205-1.064l.97.187a.542.542,0,0,1-.1,1.073Z" transform="translate(-12.25 -3.361)" fill="#569040"/>
  </g>
</svg>
