<svg xmlns="http://www.w3.org/2000/svg" width="29.973" height="30" viewBox="0 0 29.973 30">
  <g id="Page-1" transform="translate(0 0.053)">
    <g id="_024---Red-Carpet" data-name="024---Red-Carpet" transform="translate(0 -0.053)">
      <path id="Shape" d="M28.982,45.988h-5a.5.5,0,0,0,0,1h5a1,1,0,0,0,.849-1.521L22.456,33.482A.987.987,0,0,0,21.6,33H14.38a.985.985,0,0,0-.849.478L6.152,45.465A1,1,0,0,0,7,46.988H21.488a.5.5,0,0,0,0-1H7L14.38,34h.331l-4.559,9.78a.5.5,0,0,0,.453.71h3a.5.5,0,1,0,0-1H11.388L15.813,34H20.17l4.425,9.492H16.1a.5.5,0,1,0,0,1h9.28a.5.5,0,0,0,.453-.71L21.273,34h.33Z" transform="translate(-3.005 -16.988)" fill="#569040"/>
      <path id="Shape-2" data-name="Shape" d="M27.975,18.508V5.456a2.5,2.5,0,1,0-3.638-.716l-.572.459a1.478,1.478,0,0,0-1.756.127c-1.4,1.192-5.051,1.642-7.022,1.642s-5.62-.45-7.022-1.642A1.5,1.5,0,0,0,6.209,5.2l-.573-.46a2.465,2.465,0,0,0,.359-1.269A2.5,2.5,0,1,0,2,5.456V18.508a2.5,2.5,0,0,0-2,2.448v.5a1,1,0,0,0,1,1h5a1,1,0,0,0,1-1v-.5a2.5,2.5,0,0,0-2-2.448v-13l.586.47A1.5,1.5,0,0,0,6.023,7.61c2.693,2.289,8.33,2.355,8.964,2.355S21.257,9.9,23.95,7.61a1.5,1.5,0,0,0,.441-1.633l.586-.47v13a2.5,2.5,0,0,0-2,2.448v.5a1,1,0,0,0,1,1h5a1,1,0,0,0,1-1v-.5a2.5,2.5,0,0,0-2-2.448Zm-1-.05h-1V5.919a2.5,2.5,0,0,0,1,0Zm-.5-16.485a1.5,1.5,0,1,1-1.5,1.5A1.5,1.5,0,0,1,26.476,1.972Zm-22.98,0A1.5,1.5,0,1,1,2,3.471,1.5,1.5,0,0,1,3.5,1.972Zm0,4a2.5,2.5,0,0,0,.5-.05V18.458H3V5.919A2.5,2.5,0,0,0,3.5,5.969Zm2.5,14.987v.5H1v-.5a1.5,1.5,0,0,1,1.5-1.5h2A1.5,1.5,0,0,1,5.995,20.955ZM23.3,6.849c-2.422,2.058-7.72,2.117-8.317,2.117S9.092,8.907,6.671,6.849a.5.5,0,1,1,.649-.761C9.5,7.94,14.932,7.967,14.987,7.967s5.489-.027,7.668-1.879a.5.5,0,1,1,.649.761Zm.675,14.606v-.5a1.5,1.5,0,0,1,1.5-1.5h2a1.5,1.5,0,0,1,1.5,1.5v.5Z" transform="translate(0 -0.947)" fill="#569040"/>
    </g>
  </g>
</svg>
